<?xml version="1.0" encoding="utf-8"?>
<!-- Generator: Adobe Illustrator 23.0.2, SVG Export Plug-In . SVG Version: 6.00 Build 0)  -->
<svg version="1.1" id="Calque_1" xmlns="http://www.w3.org/2000/svg" xmlns:xlink="http://www.w3.org/1999/xlink" x="0px" y="0px"
	 viewBox="0 0 745 294" style="enable-background:new 0 0 745 294;" xml:space="preserve">
<style type="text/css">
	.st0{fill:#FFFFFF;}
	.st1{opacity:0.2;}
	.st2{fill:none;stroke:#FFFFFF;stroke-miterlimit:10;}
</style>
<g>
	<path class="st0" d="M606.53,289.83l15.65,0.54c3.34,0.11,6.45-1.74,7.95-4.73l3.88-7.77c1.19-2.38,3.67-3.85,6.33-3.76
		c3.05,0.1,5.8-1.3,7.47-3.75l38.41-54.46c0.28-0.4,0.18-0.94-0.21-1.22c-0.4-0.28-0.94-0.18-1.21,0.21l-38.42,54.47
		c-1.33,1.96-3.53,3.08-5.88,3c-3.43-0.12-6.55,1.74-8.04,4.72l-3.88,7.77c-1.19,2.38-3.67,3.85-6.33,3.76l-15.65-0.54
		c-0.48-0.02-0.88,0.36-0.9,0.84C605.67,289.42,606.05,289.82,606.53,289.83z"/>
</g>
<g>
	<path class="st0" d="M662.77,267.54c0.28,0.01,0.57-0.12,0.75-0.37l39.06-55.62c1.59-2.27,1.96-5.17,0.99-7.77l-0.07-0.18
		c-0.76-2.03-0.48-4.32,0.75-6.1l5.91-8.6c0.27-0.4,0.17-0.94-0.22-1.21c-0.4-0.27-0.94-0.17-1.21,0.22l-5.91,8.6
		c-1.55,2.26-1.9,5.13-0.94,7.7l0.07,0.18c0.77,2.06,0.48,4.36-0.78,6.16l-39.06,55.62c-0.28,0.39-0.18,0.94,0.21,1.21
		C662.44,267.48,662.61,267.54,662.77,267.54z"/>
</g>
<g>
	<path class="st0" d="M704.68,186.95c-0.1,2.94,2.2,5.4,5.14,5.5s5.4-2.2,5.5-5.14s-2.2-5.4-5.14-5.5
		C707.24,181.72,704.78,184.01,704.68,186.95z"/>
</g>
<g>
	<path class="st0" d="M599.95,288.74c-0.1,2.94,2.2,5.4,5.14,5.5s5.4-2.2,5.5-5.14s-2.2-5.4-5.14-5.5
		C602.52,283.5,600.05,285.8,599.95,288.74z"/>
</g>
<g>
	<path class="st0" d="M42.27,278.38h75.67c3.87,0,7.57-1.4,10.15-3.85l13.7-12.95c2.89-2.73,7.02-4.3,11.33-4.3h77.16
		c0.83,0,1.49-0.57,1.49-1.28c0-0.7-0.67-1.28-1.49-1.28h-77.16c-5.15,0-10.08,1.87-13.54,5.14l-13.7,12.95
		c-2.02,1.92-4.92,3.01-7.94,3.01H42.27c-0.82,0-1.49,0.57-1.49,1.28C40.77,277.81,41.44,278.38,42.27,278.38z"/>
</g>
<g>
	<path class="st0" d="M743.28,1.72h-75.67c-3.87,0-7.57,1.4-10.15,3.85l-13.7,12.95c-2.89,2.73-7.02,4.3-11.33,4.3h-77.16
		c-0.83,0-1.49,0.57-1.49,1.28s0.67,1.28,1.49,1.28h77.16c5.15,0,10.08-1.87,13.54-5.14l13.7-12.95c2.02-1.92,4.92-3.01,7.94-3.01
		h75.67c0.82,0,1.49-0.57,1.49-1.28C744.77,2.29,744.1,1.72,743.28,1.72z"/>
</g>
<g>
	<path class="st0" d="M106.67,4.19L91.01,3.97c-3.34-0.05-6.42,1.87-7.85,4.89l-3.72,7.85c-1.14,2.4-3.59,3.93-6.25,3.89
		c-3.05-0.04-5.78,1.42-7.39,3.9L28.51,79.72c-0.27,0.4-0.16,0.94,0.24,1.21s0.94,0.16,1.21-0.23l37.3-55.24
		c1.29-1.99,3.46-3.15,5.82-3.12c3.43,0.05,6.51-1.87,7.94-4.88l3.73-7.85c1.14-2.4,3.59-3.93,6.25-3.89l15.66,0.22
		c0.48,0.01,0.88-0.38,0.88-0.86C107.54,4.59,107.15,4.19,106.67,4.19z"/>
</g>
<g>
	<path class="st0" d="M50.9,27.62c-0.28,0-0.57,0.13-0.74,0.38L12.25,84.42c-1.55,2.3-1.86,5.21-0.83,7.79l0.07,0.18
		c0.8,2.02,0.57,4.31-0.62,6.12l-5.74,8.72c-0.26,0.4-0.15,0.94,0.25,1.21s0.94,0.15,1.21-0.25l5.74-8.72
		c1.51-2.29,1.8-5.17,0.79-7.72l-0.07-0.18c-0.81-2.04-0.57-4.35,0.66-6.17l37.91-56.41c0.27-0.4,0.16-0.94-0.24-1.21
		C51.23,27.67,51.06,27.63,50.9,27.62z"/>
</g>
<g>
	<path class="st0" d="M10.64,109.05c0.04-2.94-2.31-5.35-5.25-5.39s-5.35,2.31-5.39,5.25s2.31,5.35,5.25,5.39
		C8.19,114.34,10.6,111.99,10.64,109.05z"/>
</g>
<g>
	<path class="st0" d="M113.27,5.15c0.04-2.94-2.31-5.35-5.25-5.39s-5.35,2.31-5.39,5.25s2.31,5.35,5.25,5.4
		C110.81,10.44,113.23,8.09,113.27,5.15z"/>
</g>
<g>
	<path class="st0" d="M421.06,262.6h149.48c0.71,0,1.28-0.58,1.28-1.28c0-0.71-0.58-1.28-1.28-1.28H421.06
		c-0.71,0-1.28,0.58-1.28,1.28C419.77,262.02,420.35,262.6,421.06,262.6z"/>
</g>
<g>
	<path class="st0" d="M125.06,5.6h149.48c0.71,0,1.28-0.58,1.28-1.28s-0.58-1.28-1.28-1.28H125.06c-0.71,0-1.28,0.58-1.28,1.28
		S124.35,5.6,125.06,5.6z"/>
</g>
<g>
	<path class="st0" d="M383.06,25.6h149.48c0.71,0,1.28-0.58,1.28-1.28s-0.58-1.28-1.28-1.28H383.06c-0.71,0-1.28,0.58-1.28,1.28
		S382.35,25.6,383.06,25.6z"/>
</g>
<g>
	<path class="st0" d="M253.06,257.6h149.48c0.71,0,1.28-0.58,1.28-1.28c0-0.71-0.58-1.28-1.28-1.28H253.06
		c-0.71,0-1.28,0.58-1.28,1.28C251.77,257.02,252.35,257.6,253.06,257.6z"/>
</g>
<g class="st1">
	<path class="st0" d="M643.93,38.2l59.25,89.54c7.63,11.54,7.43,32.9-0.42,43.97l-58.96,83.13c-2.82,3.97-6.38,6.16-10.03,6.16
		H595.2c-2.34,0-4.58-1.02-6.47-2.94l-6.92-7.02c-3.96-4.01-8.58-6.13-13.36-6.13h-423.1c-4.78,0-9.4,2.12-13.36,6.13l-6.93,7.02
		c-1.89,1.92-4.13,2.94-6.47,2.94H80.01c-3.65,0-7.21-2.19-10.03-6.16l-58.96-83.13c-7.85-11.06-8.05-32.43-0.42-43.97L69.85,38.2
		c2.89-4.37,6.6-6.77,10.44-6.77h553.2C637.33,31.43,641.04,33.83,643.93,38.2z"/>
</g>
<g>
	<path class="st2" d="M643.93,38.2l59.25,89.54c7.63,11.54,7.43,32.9-0.42,43.97l-58.96,83.13c-2.82,3.97-6.38,6.16-10.03,6.16
		H595.2c-2.34,0-4.58-1.02-6.47-2.94l-6.92-7.02c-3.96-4.01-8.58-6.13-13.36-6.13h-423.1c-4.78,0-9.4,2.12-13.36,6.13l-6.93,7.02
		c-1.89,1.92-4.13,2.94-6.47,2.94H80.01c-3.65,0-7.21-2.19-10.03-6.16l-58.96-83.13c-7.85-11.06-8.05-32.43-0.42-43.97L69.85,38.2
		c2.89-4.37,6.6-6.77,10.44-6.77h553.2C637.33,31.43,641.04,33.83,643.93,38.2z"/>
</g>
</svg>
