<?xml version="1.0" encoding="utf-8"?>
<!-- Generator: Adobe Illustrator 23.0.2, SVG Export Plug-In . SVG Version: 6.00 Build 0)  -->
<svg version="1.1" id="Calque_1" xmlns="http://www.w3.org/2000/svg" xmlns:xlink="http://www.w3.org/1999/xlink" x="0px" y="0px"
	 viewBox="0 0 745 294" style="enable-background:new 0 0 745 294;" xml:space="preserve">
<style type="text/css">
	.st0{fill:#FFFFFF;}
	.st1{opacity:0.2;}
	.st2{fill:#FF0000;}
	.st3{fill:none;stroke:#FFFFFF;stroke-miterlimit:10;}
</style>
<g>
	<path class="st0" d="M138.24,289.83l-15.65,0.54c-3.34,0.11-6.45-1.74-7.95-4.73l-3.88-7.77c-1.19-2.38-3.67-3.85-6.33-3.76
		c-3.05,0.1-5.8-1.3-7.47-3.75L58.55,215.9c-0.28-0.4-0.18-0.94,0.21-1.22c0.4-0.28,0.94-0.18,1.21,0.21l38.42,54.47
		c1.33,1.96,3.53,3.08,5.88,3c3.43-0.12,6.55,1.74,8.04,4.72l3.88,7.77c1.19,2.38,3.67,3.85,6.33,3.76l15.65-0.54
		c0.48-0.02,0.88,0.36,0.9,0.84C139.1,289.42,138.73,289.82,138.24,289.83z"/>
</g>
<g>
	<path class="st0" d="M82,267.54c-0.28,0.01-0.57-0.12-0.75-0.37L42.2,211.55c-1.59-2.27-1.96-5.17-0.99-7.77l0.07-0.18
		c0.76-2.03,0.48-4.32-0.75-6.1l-5.91-8.6c-0.27-0.4-0.17-0.94,0.22-1.21c0.4-0.27,0.94-0.17,1.21,0.22l5.91,8.6
		c1.55,2.26,1.9,5.13,0.94,7.7l-0.07,0.18c-0.77,2.06-0.48,4.36,0.78,6.16l39.06,55.62c0.28,0.39,0.18,0.94-0.21,1.21
		C82.33,267.48,82.17,267.54,82,267.54z"/>
</g>
<g>
	<path class="st0" d="M40.1,186.95c0.1,2.94-2.2,5.4-5.14,5.5s-5.4-2.2-5.5-5.14s2.2-5.4,5.14-5.5
		C37.53,181.72,39.99,184.01,40.1,186.95z"/>
</g>
<g>
	<path class="st0" d="M144.82,288.74c0.1,2.94-2.2,5.4-5.14,5.5s-5.4-2.2-5.5-5.14s2.2-5.4,5.14-5.5
		C142.26,283.5,144.72,285.8,144.82,288.74z"/>
</g>
<g>
	<path class="st0" d="M702.51,278.38h-75.67c-3.87,0-7.57-1.4-10.15-3.85l-13.7-12.95c-2.89-2.73-7.02-4.3-11.33-4.3H514.5
		c-0.83,0-1.49-0.57-1.49-1.28c0-0.7,0.67-1.28,1.49-1.28h77.16c5.15,0,10.08,1.87,13.54,5.14l13.7,12.95
		c2.02,1.92,4.92,3.01,7.94,3.01h75.67c0.82,0,1.49,0.57,1.49,1.28C704,277.81,703.33,278.38,702.51,278.38z"/>
</g>
<g>
	<path class="st0" d="M1.49,1.72h75.67c3.87,0,7.57,1.4,10.15,3.85l13.7,12.95c2.89,2.73,7.02,4.3,11.33,4.3h77.16
		c0.83,0,1.49,0.57,1.49,1.28s-0.67,1.28-1.49,1.28h-77.16c-5.15,0-10.08-1.87-13.54-5.14L85.1,7.29c-2.02-1.92-4.92-3.01-7.94-3.01
		H1.49C0.67,4.27,0,3.7,0,3C0,2.29,0.67,1.72,1.49,1.72z"/>
</g>
<g>
	<path class="st0" d="M638.1,4.19l15.66-0.22c3.34-0.05,6.42,1.87,7.85,4.89l3.72,7.85c1.14,2.4,3.59,3.93,6.25,3.89
		c3.05-0.04,5.78,1.42,7.39,3.9l37.29,55.23c0.27,0.4,0.16,0.94-0.24,1.21c-0.4,0.27-0.94,0.16-1.21-0.23l-37.3-55.24
		c-1.29-1.99-3.46-3.15-5.82-3.12c-3.43,0.05-6.51-1.87-7.94-4.88l-3.73-7.85c-1.14-2.4-3.59-3.93-6.25-3.89l-15.66,0.22
		c-0.48,0.01-0.88-0.38-0.88-0.86C637.24,4.59,637.62,4.19,638.1,4.19z"/>
</g>
<g>
	<path class="st0" d="M693.87,27.62c0.28,0,0.57,0.13,0.74,0.38l37.91,56.41c1.55,2.3,1.86,5.21,0.83,7.79l-0.07,0.18
		c-0.8,2.02-0.57,4.31,0.62,6.12l5.74,8.72c0.26,0.4,0.15,0.94-0.25,1.21s-0.94,0.15-1.21-0.25l-5.74-8.72
		c-1.51-2.29-1.8-5.17-0.79-7.72l0.07-0.18c0.81-2.04,0.57-4.35-0.66-6.17l-37.91-56.41c-0.27-0.4-0.16-0.94,0.24-1.21
		C693.55,27.67,693.71,27.63,693.87,27.62z"/>
</g>
<g>
	<path class="st0" d="M734.13,109.05c-0.04-2.94,2.31-5.35,5.25-5.39s5.35,2.31,5.39,5.25c0.04,2.94-2.31,5.35-5.25,5.39
		C736.59,114.34,734.17,111.99,734.13,109.05z"/>
</g>
<g>
	<path class="st0" d="M631.51,5.15c-0.04-2.94,2.31-5.35,5.25-5.39s5.35,2.31,5.39,5.25c0.04,2.94-2.31,5.35-5.25,5.4
		C633.96,10.44,631.55,8.09,631.51,5.15z"/>
</g>
<g>
	<path class="st0" d="M323.72,262.6H174.23c-0.71,0-1.28-0.58-1.28-1.28c0-0.71,0.58-1.28,1.28-1.28h149.48
		c0.71,0,1.28,0.58,1.28,1.28C325,262.02,324.42,262.6,323.72,262.6z"/>
</g>
<g>
	<path class="st0" d="M619.72,5.6H470.23c-0.71,0-1.28-0.58-1.28-1.28s0.58-1.28,1.28-1.28h149.48c0.71,0,1.28,0.58,1.28,1.28
		S620.42,5.6,619.72,5.6z"/>
</g>
<g>
	<path class="st0" d="M361.72,25.6H212.23c-0.71,0-1.28-0.58-1.28-1.28s0.58-1.28,1.28-1.28h149.48c0.71,0,1.28,0.58,1.28,1.28
		S362.42,25.6,361.72,25.6z"/>
</g>
<g>
	<path class="st0" d="M491.72,257.6H342.23c-0.71,0-1.28-0.58-1.28-1.28c0-0.71,0.58-1.28,1.28-1.28h149.48
		c0.71,0,1.28,0.58,1.28,1.28C493,257.02,492.42,257.6,491.72,257.6z"/>
</g>
<g class="st1">
	<path class="st2" d="M111.29,31.43h553.2c3.84,0,7.55,2.41,10.44,6.77l59.25,89.54c7.63,11.54,7.43,32.9-0.42,43.97l-58.96,83.13
		c-2.82,3.97-6.38,6.16-10.03,6.16h-38.58c-2.34,0-4.58-1.02-6.47-2.94l-6.92-7.02c-3.96-4.01-8.58-6.13-13.36-6.13h-423.1
		c-4.78,0-9.4,2.12-13.36,6.13l-6.93,7.02c-1.89,1.92-4.13,2.94-6.47,2.94H111c-3.65,0-7.21-2.19-10.03-6.16l-58.96-83.13
		c-7.85-11.06-8.05-32.43-0.42-43.97l59.25-89.54C103.73,33.83,107.44,31.43,111.29,31.43z"/>
</g>
<g>
	<path class="st3" d="M111.29,31.43h553.2c3.84,0,7.55,2.41,10.44,6.77l59.25,89.54c7.63,11.54,7.43,32.9-0.42,43.97l-58.96,83.13
		c-2.82,3.97-6.38,6.16-10.03,6.16h-38.58c-2.34,0-4.58-1.02-6.47-2.94l-6.92-7.02c-3.96-4.01-8.58-6.13-13.36-6.13h-423.1
		c-4.78,0-9.4,2.12-13.36,6.13l-6.93,7.02c-1.89,1.92-4.13,2.94-6.47,2.94H111c-3.65,0-7.21-2.19-10.03-6.16l-58.96-83.13
		c-7.85-11.06-8.05-32.43-0.42-43.97l59.25-89.54C103.73,33.83,107.44,31.43,111.29,31.43z"/>
</g>
</svg>
