<?xml version="1.0" encoding="utf-8"?>
<!-- Generator: Adobe Illustrator 23.0.2, SVG Export Plug-In . SVG Version: 6.00 Build 0)  -->
<svg version="1.1" id="Calque_1" xmlns="http://www.w3.org/2000/svg" xmlns:xlink="http://www.w3.org/1999/xlink" x="0px" y="0px"
	 viewBox="0 0 42 31" style="enable-background:new 0 0 42 31;" xml:space="preserve">
<style type="text/css">
	.st0{opacity:0.2;}
	.st1{fill:#FFFFFF;}
	.st2{fill:none;stroke:#FFFFFF;stroke-miterlimit:10;}
</style>
<g class="st0">
	<path class="st1" d="M10.43,1.1h21.04c0.49,0,0.96,0.3,1.32,0.86l7.5,11.34c0.97,1.46,0.94,4.17-0.05,5.57l-7.46,10.52
		c-0.36,0.5-0.81,0.78-1.27,0.78h-4.88c-0.3,0-0.58-0.13-0.82-0.37l-0.88-0.89c-0.5-0.51-1.09-0.78-1.69-0.78h-4.57
		c-0.6,0-1.19,0.27-1.69,0.78l-0.88,0.89c-0.24,0.24-0.52,0.37-0.82,0.37h-4.88c-0.46,0-0.91-0.28-1.27-0.78L1.66,18.86
		c-0.99-1.4-1.02-4.11-0.05-5.57l7.5-11.34C9.47,1.41,9.94,1.1,10.43,1.1z"/>
</g>
<g>
	<path class="st2" d="M10.4,1.1h20.97c0.49,0,0.95,0.3,1.32,0.85l7.48,11.3c0.96,1.46,0.94,4.15-0.05,5.55l-7.44,10.49
		c-0.36,0.5-0.81,0.78-1.27,0.78h-4.87c-0.3,0-0.58-0.13-0.82-0.37l-0.87-0.89c-0.5-0.51-1.08-0.77-1.69-0.77h-4.56
		c-0.6,0-1.19,0.27-1.69,0.77l-0.87,0.89c-0.24,0.24-0.52,0.37-0.82,0.37h-4.87c-0.46,0-0.91-0.28-1.27-0.78L1.66,18.8
		c-0.99-1.4-1.02-4.09-0.05-5.55l7.48-11.3C9.45,1.4,9.91,1.1,10.4,1.1z"/>
</g>
</svg>
