<?xml version="1.0" encoding="utf-8"?>
<!-- Generator: Adobe Illustrator 23.0.2, SVG Export Plug-In . SVG Version: 6.00 Build 0)  -->
<svg version="1.1" id="Calque_1" xmlns="http://www.w3.org/2000/svg" xmlns:xlink="http://www.w3.org/1999/xlink" x="0px" y="0px"
	 viewBox="0 0 313 312" style="enable-background:new 0 0 313 312;" xml:space="preserve">
<style type="text/css">
	.st0{fill:none;stroke:#3FA9F5;stroke-miterlimit:10;}
</style>
<rect x="132.52" y="108.05" class="st0" width="95.87" height="95.87"/>
<rect x="17.54" y="-0.02" class="st0" width="71.9" height="71.9"/>
<rect x="192.66" y="192.16" class="st0" width="119.84" height="119.84"/>
<rect x="79.75" y="37.66" transform="matrix(6.123234e-17 -1 1 6.123234e-17 42.0848 213.28)" class="st0" width="95.87" height="95.87"/>
<rect x="0.48" y="222.89" transform="matrix(6.123234e-17 -1 1 6.123234e-17 -222.4069 295.2688)" class="st0" width="71.9" height="71.9"/>
<rect x="192.66" y="-0.02" transform="matrix(6.123234e-17 -1 1 6.123234e-17 192.6833 312.4791)" class="st0" width="119.84" height="119.84"/>
<rect x="84.59" y="143.71" transform="matrix(-1.836970e-16 1 -1 -1.836970e-16 300.203 59.1264)" class="st0" width="71.9" height="71.9"/>
<rect x="151.93" y="18.35" transform="matrix(-1.836970e-16 1 -1 -1.836970e-16 242.1851 -133.5741)" class="st0" width="71.9" height="71.9"/>
<rect x="0.48" y="54.31" transform="matrix(-1.836970e-16 1 -1 -1.836970e-16 126.6881 53.8262)" class="st0" width="71.9" height="71.9"/>
<rect x="211.55" y="239.98" transform="matrix(-1.836970e-16 1 -1 -1.836970e-16 523.4293 28.4253)" class="st0" width="71.9" height="71.9"/>
<rect x="192.87" y="156.94" transform="matrix(6.123234e-17 -1 1 6.123234e-17 35.9375 445.6807)" class="st0" width="95.87" height="95.87"/>
<rect x="104.17" y="215.62" class="st0" width="71.9" height="71.9"/>
<rect x="0.48" y="-0.02" class="st0" width="312.02" height="312.02"/>
</svg>
