<?xml version="1.0" encoding="utf-8"?>
<!-- Generator: Adobe Illustrator 23.0.2, SVG Export Plug-In . SVG Version: 6.00 Build 0)  -->
<svg version="1.1" id="Calque_1" xmlns="http://www.w3.org/2000/svg" xmlns:xlink="http://www.w3.org/1999/xlink" x="0px" y="0px"
	 viewBox="0 0 176 185" style="enable-background:new 0 0 176 185;" xml:space="preserve">
<style type="text/css">
	.st0{clip-path:url(#SVGID_2_);}
	.st1{clip-path:url(#SVGID_4_);fill:#084F68;}
	.st2{clip-path:url(#SVGID_6_);fill:#084F68;}
	.st3{clip-path:url(#SVGID_8_);fill:#084F68;}
	.st4{clip-path:url(#SVGID_10_);fill:#084F68;}
	.st5{clip-path:url(#SVGID_12_);fill:#084F68;}
	.st6{clip-path:url(#SVGID_14_);fill:#084F68;}
	.st7{clip-path:url(#SVGID_16_);fill:#084F68;}
	.st8{clip-path:url(#SVGID_18_);fill:#084F68;}
	.st9{clip-path:url(#SVGID_20_);fill:#084F68;}
	.st10{clip-path:url(#SVGID_22_);fill:#084F68;}
	.st11{clip-path:url(#SVGID_24_);fill:#084F68;}
	.st12{clip-path:url(#SVGID_26_);fill:#084F68;}
	.st13{fill:none;}
</style>
<g>
	<g>
		<g>
			<g>
				<defs>
					<path id="SVGID_1_" d="M9.55,37.27l-9.89-7.99c-1.97-1.56-1.98-4.67,0.03-6.9c0,0,0.47-0.52,1.28-1.42s1.96-2.22,3.54-3.61
						c1.55-1.41,3.36-3.06,5.3-4.82c2.03-1.65,4.31-3.29,6.56-4.96l1.69-1.23c0.6-0.36,1.19-0.73,1.77-1.09
						c1.18-0.71,2.34-1.41,3.47-2.09c1.13-0.66,2.21-1.33,3.27-1.9c1.08-0.52,2.11-1.02,3.05-1.47c1.9-0.89,3.48-1.63,4.59-2.15
						c0.55-0.26,0.99-0.45,1.31-0.56c0.31-0.11,0.47-0.17,0.47-0.17c2.83-1.05,5.77,0.08,6.56,2.46l0.41,1.19
						c0.41,1.19,1.31,2.08,2.4,2.57c1.08,0.46,2.39,0.62,3.69,0.3c0,0,0.86-0.22,2.37-0.61c1.52-0.36,3.65-1.02,6.31-1.36
						c2.64-0.38,5.71-1.01,9.06-1.1c1.67-0.09,3.39-0.19,5.14-0.29c1.75,0.02,3.54,0.1,5.32,0.17c3.57,0.01,7.1,0.67,10.41,1.08
						c1.67,0.17,3.22,0.64,4.72,0.96c1.49,0.36,2.9,0.69,4.21,1c2.58,0.71,4.67,1.52,6.15,2c1.48,0.51,2.32,0.8,2.32,0.8
						c2.46,0.99,5.26,0.1,6.33-2.2l2.24-4.92c1.01-2.29,4.18-3.14,7-1.74c0,0,2.07,1.2,5.7,3.29c0.9,0.54,1.89,1.14,2.97,1.78
						c1.02,0.73,2.13,1.52,3.31,2.37c3.13,2.12,6.15,4.1,7.68,6.01c2.67,2.38,5.6,4.91,8.3,8.03c1.38,1.53,2.83,3.06,4.21,4.73
						c1.3,1.73,2.62,3.5,3.97,5.3c0.66,0.91,1.35,1.81,1.98,2.76c0.6,0.97,1.2,1.95,1.8,2.94c1.18,1.99,2.43,3.97,3.53,6.06
						c2.05,4.25,4.21,8.53,5.7,13.09c1.76,4.46,2.83,9.13,3.95,13.69c0.48,2.3,0.79,4.62,1.15,6.89c0.17,1.14,0.33,2.27,0.5,3.4
						c0.08,1.13,0.15,2.26,0.23,3.38c0.14,2.23,0.26,4.44,0.35,6.59c-0.07,2.16-0.14,4.26-0.21,6.32c-0.05,1.02-0.09,2.04-0.14,3.03
						c-0.05,0.99-0.22,1.97-0.33,2.93c-0.26,1.92-0.51,3.77-0.75,5.55c-1.23,7.07-2.84,12.86-4.29,16.8
						c-0.69,1.98-1.21,3.54-1.62,4.59c-0.45,1.03-0.7,1.57-0.7,1.57c-1.28,2.88-4.19,4.28-6.44,3.16l-10.46-5.08
						c-2.29-1.08-4.88-0.1-6.18,2c0,0-1.11,1.9-2.78,4.75c-0.92,1.37-2.08,2.91-3.28,4.58c-0.61,0.83-1.24,1.69-1.89,2.56
						c-0.72,0.81-1.45,1.63-2.18,2.45c-0.73,0.82-1.47,1.64-2.19,2.44c-0.36,0.4-0.72,0.8-1.08,1.19c-0.37,0.38-0.77,0.72-1.15,1.07
						c-1.52,1.39-2.95,2.69-4.17,3.8c-0.6,0.57-1.18,1.05-1.73,1.44c-0.54,0.4-1.01,0.75-1.39,1.04c-0.77,0.58-1.21,0.91-1.21,0.91
						c-2.01,1.51-4.77,0.99-6.16-1.18l-0.92-1.4c-1.4-2.09-4.03-2.89-5.86-1.79l-0.07,0.04c-0.93,0.54-1.5,1.54-1.76,2.57
						c-0.27,1.04-0.16,2.25,0.4,3.37l7.52,14.8c1.16,2.23-0.06,5.09-2.75,6.34c0,0-0.31,0.14-0.88,0.41
						c-0.57,0.29-1.42,0.64-2.54,1.03c-1.11,0.4-2.46,0.89-4,1.45c-1.55,0.54-3.28,1.22-5.25,1.67c-7.74,2.34-18.51,3.93-29.28,3.63
						c-5.4-0.05-10.75-0.83-15.73-1.67c-2.46-0.58-4.85-1.13-7.11-1.66c-2.26-0.53-4.3-1.36-6.23-1.97
						c-3.88-1.21-6.92-2.69-9.07-3.67c-2.15-0.99-3.37-1.56-3.37-1.56c-2.61-1.41-3.62-4.41-2.34-6.56l3.35-5.74
						c1.25-2.2,0.53-4.92-1.53-6.22c0,0-1.97-1.43-4.93-3.58c-1.53-1.01-3.05-2.51-4.77-4.02c-0.85-0.76-1.73-1.55-2.62-2.35
						c-0.86-0.83-1.65-1.76-2.49-2.65c-3.42-3.48-6.21-7.51-8.35-10.47c-1.89-3.14-3.14-5.23-3.14-5.23
						c-0.67-1.04-0.69-2.29-0.29-3.39c0.39-1.09,1.21-2.02,2.34-2.57l6.72-3.28c1.13-0.55,2.33-0.67,3.35-0.45
						c1.01,0.23,1.82,0.79,2.36,1.61c0,0,0.35,0.58,1.01,1.68c0.68,1.08,1.53,2.76,3.04,4.62c0.71,0.96,1.5,2.02,2.35,3.18
						c0.97,1.06,2.02,2.21,3.14,3.44c1.06,1.29,2.42,2.44,3.81,3.68c0.7,0.63,1.41,1.27,2.14,1.92c0.73,0.65,1.6,1.18,2.41,1.8
						c6.54,4.93,15.24,9.31,25.27,11.45c0.62,0.13,1.24,0.33,1.88,0.42l1.93,0.25c1.29,0.18,2.58,0.35,3.89,0.53
						c1.32,0.05,2.64,0.1,3.97,0.15l2,0.08c0.67,0.03,1.34-0.07,2.01-0.09c1.34-0.08,2.69-0.15,4.04-0.23
						c1.35-0.11,2.68-0.4,4.03-0.58c2.72-0.28,5.33-1.14,7.98-1.76c10.5-3.08,20.02-8.99,27.31-16.16
						c7.31-7.24,12.19-15.72,15.04-23.35c0.61-1.95,1.39-3.77,1.81-5.58c0.43-1.82,0.83-3.54,1.22-5.16
						c0.39-3.3,0.98-6.16,0.93-8.56c0.08-2.39,0.22-4.27,0.06-5.54c-0.08-1.28-0.12-1.96-0.12-1.96c-0.05-0.94,0.38-1.88,1.19-2.65
						c0,0,0.36-0.34,0.85-0.86c0.5-0.54,1.16-1.26,1.82-1.98c1.32-1.47,2.63-3.06,2.63-3.06c0.71-0.88,1.09-2.01,0.78-3.03
						c0,0-0.35-1.37-0.87-3.43c-0.42-2.09-1.45-4.73-2.41-7.4c-0.25-0.66-0.45-1.34-0.74-1.98c-0.3-0.63-0.59-1.25-0.88-1.85
						c-0.57-1.2-1.1-2.32-1.55-3.28c-0.42-0.98-0.89-1.73-1.22-2.26c-0.32-0.53-0.5-0.83-0.5-0.83c-0.55-0.92-1.49-1.55-2.6-1.73
						c0,0-0.51-0.08-1.27-0.2c-0.76-0.12-1.74-0.26-2.8-0.33c-2.09-0.16-4.09-0.22-4.09-0.22c-1.09-0.03-2-0.46-2.56-1.22
						c0,0-0.06-0.07-0.16-0.22c-0.11-0.14-0.24-0.37-0.49-0.61c-0.46-0.5-1.14-1.24-2-2.18c-1.63-1.97-4.35-4.42-7.7-7.24
						c-6.81-5.49-17.42-10.98-28.96-12.97c-2.89-0.36-5.77-0.88-8.65-0.85c-2.87-0.24-5.69,0.06-8.42,0.19
						c-1.37,0.03-2.68,0.38-3.99,0.54c-1.29,0.24-2.59,0.31-3.8,0.66c-1.21,0.31-2.4,0.61-3.54,0.9c-0.57,0.14-1.13,0.28-1.69,0.42
						c-0.53,0.19-1.06,0.39-1.57,0.57c-1.03,0.37-2.01,0.72-2.95,1.06c-0.47,0.17-0.93,0.33-1.37,0.49c-0.42,0.2-0.84,0.4-1.24,0.59
						c-1.6,0.76-3.01,1.42-4.16,1.96c-2.21,1.27-3.44,2.04-3.44,2.04c-0.8,0.48-1.83,0.53-2.89,0.17c0,0-0.47-0.15-1.17-0.35
						c-0.71-0.19-1.67-0.45-2.62-0.7c-1.93-0.49-3.97-0.9-3.97-0.9c-0.73-0.15-1.46-0.1-2.13,0.13c0,0-0.19,0.06-0.5,0.21
						c-0.31,0.14-0.76,0.35-1.29,0.6c-1.09,0.51-2.55,1.2-4,1.88c-1.52,0.65-2.84,1.55-3.91,2.18c-1.05,0.64-1.76,1.08-1.76,1.08
						C13.4,38.71,11.15,38.55,9.55,37.27z"/>
				</defs>
				<clipPath id="SVGID_2_">
					<use xlink:href="#SVGID_1_"  style="overflow:visible;"/>
				</clipPath>
				<g class="st0">
					<g>
						<defs>
							
								<rect id="SVGID_3_" x="58.08" y="-93.13" transform="matrix(0.9708 -0.24 0.24 0.9708 15.8524 22.989)" width="88.46" height="79.09"/>
						</defs>
						<clipPath id="SVGID_4_">
							<use xlink:href="#SVGID_3_"  style="overflow:visible;"/>
						</clipPath>
						<path class="st1" d="M163.24-27.92l-17,4.2c-1.59,0.39-3.29-0.1-4.43-1.28l-12.14-12.62c-1.14-1.18-1.56-2.9-1.11-4.47
							l4.86-16.82c0.46-1.58,1.73-2.8,3.32-3.19l17-4.2c1.59-0.39,3.29,0.1,4.43,1.28l12.14,12.62c1.14,1.18,1.56,2.9,1.11,4.47
							l-4.86,16.82C166.1-29.54,164.83-28.31,163.24-27.92z M136.99-61.13c-1.24,0.31-2.24,1.26-2.6,2.5l-4.86,16.82
							c-0.36,1.23-0.03,2.57,0.86,3.5l12.14,12.62c0.89,0.93,2.22,1.31,3.46,1l17-4.2c1.25-0.31,2.24-1.26,2.6-2.5l4.86-16.82
							c0.36-1.23,0.02-2.57-0.86-3.5l-12.14-12.62c-0.89-0.92-2.22-1.31-3.46-1L136.99-61.13z"/>
						<path class="st1" d="M125.05,1.89l-17,4.2c-1.59,0.39-3.29-0.1-4.43-1.28L91.48-7.81c-1.14-1.18-1.56-2.9-1.11-4.47
							l4.86-16.82c0.46-1.58,1.73-2.8,3.32-3.2l17-4.2c1.59-0.39,3.29,0.1,4.43,1.28l12.14,12.62c1.14,1.18,1.56,2.9,1.11,4.47
							l-4.86,16.82C127.91,0.27,126.64,1.49,125.05,1.89z M98.8-31.32c-1.25,0.31-2.24,1.26-2.6,2.5L91.34-12
							c-0.35,1.23-0.02,2.57,0.86,3.5l12.14,12.62c0.89,0.92,2.22,1.31,3.46,1l17-4.2c1.25-0.31,2.24-1.26,2.6-2.5l4.86-16.82
							c0.35-1.23,0.02-2.57-0.86-3.5l-12.14-12.62c-0.89-0.93-2.22-1.31-3.46-1L98.8-31.32z"/>
						<path class="st1" d="M77.36-6.69l-17,4.2c-1.59,0.39-3.29-0.1-4.43-1.28L43.8-16.38c-1.14-1.18-1.56-2.9-1.11-4.47l4.86-16.82
							c0.46-1.58,1.73-2.8,3.32-3.19l17-4.2c1.59-0.39,3.29,0.1,4.43,1.28l12.14,12.62c1.14,1.18,1.56,2.9,1.11,4.47L80.69-9.88
							C80.23-8.31,78.96-7.08,77.36-6.69z M51.12-39.9c-1.25,0.31-2.24,1.26-2.6,2.5l-4.86,16.82c-0.36,1.23-0.03,2.57,0.86,3.5
							L56.66-4.46c0.89,0.93,2.22,1.31,3.46,1l17-4.2c1.24-0.31,2.24-1.26,2.6-2.5l4.86-16.82c0.36-1.23,0.02-2.57-0.86-3.5
							L71.58-43.1c-0.89-0.92-2.22-1.31-3.46-1L51.12-39.9z"/>
						<path class="st1" d="M153.75-66.31l-17,4.2c-1.59,0.39-3.29-0.1-4.43-1.28L120.19-76c-1.14-1.18-1.56-2.9-1.11-4.47
							l4.86-16.82c0.46-1.58,1.73-2.8,3.32-3.2l17-4.2c1.59-0.39,3.29,0.1,4.43,1.28l12.14,12.62c1.14,1.18,1.56,2.9,1.11,4.47
							l-4.86,16.82C156.61-67.92,155.34-66.7,153.75-66.31z M127.5-99.52c-1.24,0.31-2.24,1.27-2.6,2.5l-4.86,16.82
							c-0.36,1.23-0.03,2.57,0.86,3.5l12.14,12.62c0.89,0.92,2.22,1.31,3.46,1l17-4.2c1.25-0.31,2.24-1.27,2.6-2.5l4.86-16.82
							c0.36-1.23,0.02-2.57-0.86-3.5l-12.14-12.62c-0.89-0.92-2.22-1.31-3.46-1L127.5-99.52z"/>
						<path class="st1" d="M115.55-36.5l-17,4.2c-1.59,0.39-3.29-0.1-4.43-1.28L81.99-46.19c-1.14-1.18-1.56-2.9-1.11-4.47
							l4.86-16.82c0.46-1.58,1.73-2.8,3.32-3.2l17-4.2c1.59-0.39,3.29,0.1,4.43,1.28l12.14,12.62c1.14,1.18,1.56,2.9,1.11,4.47
							l-4.86,16.82C118.42-38.12,117.15-36.89,115.55-36.5z M89.31-69.71c-1.25,0.31-2.24,1.26-2.6,2.5l-4.86,16.82
							c-0.35,1.23-0.02,2.57,0.86,3.5l12.14,12.62c0.89,0.92,2.22,1.31,3.46,1l17-4.2c1.25-0.31,2.24-1.26,2.6-2.5l4.86-16.82
							c0.35-1.23,0.02-2.57-0.86-3.5l-12.14-12.62c-0.89-0.93-2.22-1.31-3.46-1L89.31-69.71z"/>
						<path class="st1" d="M67.87-45.08l-17,4.2c-1.59,0.39-3.29-0.1-4.43-1.28L34.31-54.77c-1.14-1.18-1.56-2.9-1.11-4.47
							l4.86-16.82c0.46-1.58,1.73-2.8,3.32-3.2l17-4.2c1.59-0.39,3.29,0.1,4.43,1.28l12.14,12.62c1.14,1.18,1.56,2.9,1.11,4.47
							l-4.86,16.82C70.74-46.69,69.47-45.47,67.87-45.08z M41.63-78.28c-1.25,0.31-2.24,1.27-2.6,2.5l-4.86,16.82
							c-0.36,1.23-0.03,2.57,0.86,3.5l12.14,12.62c0.89,0.92,2.22,1.31,3.46,1l17-4.2c1.24-0.31,2.24-1.27,2.6-2.5l4.86-16.82
							c0.36-1.23,0.02-2.57-0.86-3.5L62.09-81.49c-0.89-0.92-2.22-1.31-3.46-1L41.63-78.28z"/>
						<path class="st1" d="M106.06-74.88l-17,4.2c-1.59,0.39-3.29-0.1-4.43-1.28L72.5-84.58c-1.14-1.18-1.56-2.9-1.11-4.47
							l4.86-16.82c0.46-1.58,1.73-2.8,3.32-3.19l17-4.2c1.59-0.39,3.29,0.1,4.43,1.28l12.14,12.62c1.14,1.18,1.56,2.9,1.11,4.47
							l-4.86,16.82C108.93-76.5,107.66-75.28,106.06-74.88z M79.82-108.09c-1.25,0.31-2.24,1.26-2.6,2.5l-4.86,16.82
							c-0.35,1.23-0.02,2.57,0.86,3.5l12.14,12.62c0.89,0.92,2.22,1.31,3.46,1l17-4.2c1.25-0.31,2.24-1.26,2.6-2.5l4.86-16.82
							c0.35-1.23,0.02-2.57-0.86-3.5l-12.14-12.62c-0.89-0.92-2.22-1.31-3.46-1L79.82-108.09z"/>
					</g>
				</g>
				<g class="st0">
					<g>
						<defs>
							
								<rect id="SVGID_5_" x="77.06" y="-16.36" transform="matrix(0.9708 -0.24 0.24 0.9708 -2.019 29.7885)" width="88.46" height="79.08"/>
						</defs>
						<clipPath id="SVGID_6_">
							<use xlink:href="#SVGID_5_"  style="overflow:visible;"/>
						</clipPath>
						<path class="st2" d="M182.22,48.85l-17,4.2c-1.59,0.39-3.29-0.1-4.43-1.28l-12.14-12.62c-1.14-1.18-1.56-2.9-1.11-4.47
							l4.86-16.82c0.46-1.58,1.73-2.8,3.32-3.19l17-4.2c1.59-0.39,3.29,0.1,4.43,1.28l12.14,12.62c1.14,1.18,1.56,2.9,1.11,4.47
							l-4.86,16.82C185.08,47.24,183.81,48.46,182.22,48.85z M155.97,15.65c-1.24,0.31-2.24,1.26-2.6,2.5l-4.86,16.82
							c-0.36,1.23-0.02,2.57,0.86,3.5l12.14,12.62c0.89,0.92,2.22,1.31,3.46,1l17-4.2c1.25-0.31,2.24-1.26,2.6-2.5l4.86-16.82
							c0.36-1.23,0.02-2.57-0.86-3.5l-12.14-12.62c-0.89-0.92-2.22-1.31-3.46-1L155.97,15.65z"/>
						<path class="st2" d="M144.03,78.66l-17,4.2c-1.59,0.39-3.29-0.1-4.43-1.28l-12.14-12.62c-1.14-1.18-1.56-2.9-1.11-4.47
							l4.86-16.82c0.46-1.58,1.73-2.8,3.32-3.2l17-4.2c1.59-0.39,3.29,0.1,4.43,1.28l12.14,12.62c1.14,1.18,1.56,2.9,1.11,4.47
							l-4.86,16.82C146.89,77.04,145.62,78.27,144.03,78.66z M117.78,45.45c-1.25,0.31-2.24,1.27-2.6,2.5l-4.86,16.82
							c-0.35,1.23-0.02,2.57,0.86,3.5l12.14,12.62c0.89,0.92,2.22,1.31,3.46,1l17-4.2c1.25-0.31,2.24-1.27,2.6-2.5l4.86-16.82
							c0.35-1.23,0.02-2.57-0.86-3.5l-12.14-12.62c-0.89-0.92-2.22-1.31-3.46-1L117.78,45.45z"/>
						<path class="st2" d="M96.35,70.08l-17,4.2c-1.59,0.39-3.29-0.1-4.43-1.28L62.78,60.39c-1.14-1.18-1.56-2.9-1.11-4.47
							l4.86-16.82c0.46-1.58,1.73-2.8,3.32-3.19l17-4.2c1.59-0.39,3.29,0.1,4.43,1.28l12.14,12.62c1.14,1.18,1.56,2.9,1.11,4.47
							l-4.86,16.82C99.21,68.47,97.94,69.69,96.35,70.08z M70.1,36.88c-1.25,0.31-2.24,1.26-2.6,2.5l-4.86,16.82
							c-0.36,1.23-0.02,2.57,0.86,3.5l12.14,12.62c0.89,0.92,2.22,1.31,3.46,1l17-4.2c1.24-0.31,2.24-1.26,2.6-2.5l4.86-16.82
							c0.36-1.23,0.02-2.57-0.86-3.5L90.56,33.67c-0.89-0.92-2.22-1.31-3.46-1L70.1,36.88z"/>
						<path class="st2" d="M172.73,10.47l-17,4.2c-1.59,0.39-3.29-0.1-4.43-1.28L139.17,0.77c-1.14-1.18-1.56-2.9-1.11-4.47
							l4.86-16.82c0.46-1.58,1.73-2.8,3.32-3.19l17-4.2c1.59-0.39,3.29,0.1,4.43,1.28l12.14,12.62c1.14,1.18,1.56,2.9,1.11,4.47
							l-4.86,16.82C175.59,8.85,174.32,10.07,172.73,10.47z M146.48-22.74c-1.24,0.31-2.24,1.26-2.6,2.5l-4.86,16.82
							c-0.36,1.23-0.02,2.57,0.86,3.5l12.14,12.62c0.89,0.93,2.22,1.31,3.46,1l17-4.2c1.25-0.31,2.24-1.26,2.6-2.5l4.86-16.82
							c0.36-1.23,0.02-2.57-0.86-3.5l-12.14-12.62c-0.89-0.92-2.22-1.31-3.46-1L146.48-22.74z"/>
						<path class="st2" d="M134.54,40.27l-17,4.2c-1.59,0.39-3.29-0.1-4.43-1.28l-12.14-12.62c-1.14-1.18-1.56-2.9-1.11-4.47
							l4.86-16.82c0.46-1.58,1.73-2.8,3.32-3.2l17-4.2c1.59-0.39,3.29,0.1,4.43,1.28l12.14,12.62c1.14,1.18,1.56,2.9,1.11,4.47
							l-4.86,16.82C137.4,38.66,136.13,39.88,134.54,40.27z M108.29,7.07c-1.25,0.31-2.24,1.27-2.6,2.5l-4.86,16.82
							c-0.35,1.23-0.02,2.57,0.86,3.5l12.14,12.62c0.89,0.92,2.22,1.31,3.46,1l17-4.2c1.25-0.31,2.24-1.26,2.6-2.5l4.86-16.82
							c0.35-1.23,0.02-2.57-0.86-3.5L128.75,3.86c-0.89-0.92-2.22-1.31-3.46-1L108.29,7.07z"/>
						<path class="st2" d="M86.86,31.7l-17,4.2c-1.59,0.39-3.29-0.1-4.43-1.28L53.29,22c-1.14-1.18-1.56-2.9-1.11-4.47l4.86-16.82
							c0.46-1.58,1.73-2.8,3.32-3.19l17-4.2c1.59-0.39,3.29,0.1,4.43,1.28L93.93,7.21c1.14,1.18,1.56,2.9,1.11,4.47L90.18,28.5
							C89.72,30.08,88.45,31.3,86.86,31.7z M60.61-1.51c-1.25,0.31-2.24,1.26-2.6,2.5l-4.86,16.82c-0.36,1.23-0.02,2.57,0.86,3.5
							l12.14,12.62c0.89,0.93,2.22,1.31,3.46,1l17-4.2c1.24-0.31,2.24-1.26,2.6-2.5l4.86-16.82c0.36-1.23,0.02-2.57-0.86-3.5
							L81.07-4.71c-0.89-0.92-2.22-1.31-3.46-1L60.61-1.51z"/>
						<path class="st2" d="M125.05,1.89l-17,4.2c-1.59,0.39-3.29-0.1-4.43-1.28L91.48-7.81c-1.14-1.18-1.56-2.9-1.11-4.47
							l4.86-16.82c0.46-1.58,1.73-2.8,3.32-3.2l17-4.2c1.59-0.39,3.29,0.1,4.43,1.28l12.14,12.62c1.14,1.18,1.56,2.9,1.11,4.47
							l-4.86,16.82C127.91,0.27,126.64,1.49,125.05,1.89z M98.8-31.32c-1.25,0.31-2.24,1.26-2.6,2.5L91.34-12
							c-0.35,1.23-0.02,2.57,0.86,3.5l12.14,12.62c0.89,0.92,2.22,1.31,3.46,1l17-4.2c1.25-0.31,2.24-1.26,2.6-2.5l4.86-16.82
							c0.35-1.23,0.02-2.57-0.86-3.5l-12.14-12.62c-0.89-0.93-2.22-1.31-3.46-1L98.8-31.32z"/>
					</g>
				</g>
				<g class="st0">
					<g>
						<defs>
							
								<rect id="SVGID_7_" x="96.04" y="60.41" transform="matrix(0.9708 -0.24 0.24 0.9708 -19.8901 36.5879)" width="88.46" height="79.08"/>
						</defs>
						<clipPath id="SVGID_8_">
							<use xlink:href="#SVGID_7_"  style="overflow:visible;"/>
						</clipPath>
						<path class="st3" d="M201.2,125.63l-17,4.2c-1.59,0.39-3.29-0.1-4.43-1.28l-12.14-12.62c-1.14-1.18-1.56-2.9-1.11-4.47
							l4.86-16.82c0.46-1.58,1.73-2.8,3.32-3.2l17-4.2c1.59-0.39,3.29,0.1,4.43,1.28l12.14,12.62c1.14,1.18,1.56,2.9,1.11,4.47
							l-4.86,16.82C204.06,124.01,202.79,125.23,201.2,125.63z M174.95,92.42c-1.24,0.31-2.24,1.26-2.6,2.5l-4.86,16.82
							c-0.36,1.23-0.02,2.57,0.86,3.5l12.14,12.62c0.89,0.92,2.22,1.31,3.46,1l17-4.2c1.25-0.31,2.24-1.26,2.6-2.5l4.86-16.82
							c0.36-1.23,0.02-2.57-0.86-3.5l-12.14-12.62c-0.89-0.93-2.22-1.31-3.46-1L174.95,92.42z"/>
						<path class="st3" d="M163.01,155.44l-17,4.2c-1.59,0.39-3.29-0.1-4.43-1.28l-12.14-12.62c-1.14-1.18-1.56-2.9-1.11-4.47
							l4.86-16.82c0.46-1.58,1.73-2.8,3.32-3.19l17-4.2c1.59-0.39,3.29,0.1,4.43,1.28l12.14,12.62c1.14,1.18,1.56,2.9,1.11,4.47
							l-4.86,16.82C165.87,153.82,164.6,155.04,163.01,155.44z M136.76,122.23c-1.25,0.31-2.24,1.26-2.6,2.5l-4.86,16.82
							c-0.35,1.23-0.02,2.57,0.86,3.5l12.14,12.62c0.89,0.93,2.22,1.31,3.46,1l17-4.2c1.25-0.31,2.24-1.26,2.6-2.5l4.86-16.82
							c0.35-1.23,0.02-2.57-0.86-3.5l-12.14-12.62c-0.89-0.92-2.22-1.31-3.46-1L136.76,122.23z"/>
						<path class="st3" d="M115.33,146.86l-17,4.2c-1.59,0.39-3.29-0.1-4.43-1.28l-12.14-12.62c-1.14-1.18-1.56-2.9-1.11-4.47
							l4.86-16.82c0.46-1.58,1.73-2.8,3.32-3.2l17-4.2c1.59-0.39,3.29,0.1,4.43,1.28l12.14,12.62c1.14,1.18,1.56,2.9,1.11,4.47
							l-4.86,16.82C118.19,145.24,116.92,146.46,115.33,146.86z M89.08,113.65c-1.25,0.31-2.24,1.26-2.6,2.5l-4.86,16.82
							c-0.36,1.23-0.02,2.57,0.86,3.5l12.14,12.62c0.89,0.92,2.22,1.31,3.46,1l17-4.2c1.24-0.31,2.24-1.26,2.6-2.5l4.86-16.82
							c0.36-1.23,0.02-2.57-0.86-3.5l-12.14-12.62c-0.89-0.93-2.22-1.31-3.46-1L89.08,113.65z"/>
						<path class="st3" d="M191.71,87.24l-17,4.2c-1.59,0.39-3.29-0.1-4.43-1.28l-12.14-12.62c-1.14-1.18-1.56-2.9-1.11-4.47
							l4.86-16.82c0.46-1.58,1.73-2.8,3.32-3.2l17-4.2c1.59-0.39,3.29,0.1,4.43,1.28l12.14,12.62c1.14,1.18,1.56,2.9,1.11,4.47
							l-4.86,16.82C194.57,85.62,193.3,86.85,191.71,87.24z M165.46,54.03c-1.24,0.31-2.24,1.26-2.6,2.5l-4.86,16.82
							c-0.36,1.23-0.02,2.57,0.86,3.5l12.14,12.62c0.89,0.92,2.22,1.31,3.46,1l17-4.2c1.25-0.31,2.24-1.26,2.6-2.5l4.86-16.82
							c0.36-1.23,0.02-2.57-0.86-3.5l-12.14-12.62c-0.89-0.93-2.22-1.31-3.46-1L165.46,54.03z"/>
						<path class="st3" d="M153.52,117.05l-17,4.2c-1.59,0.39-3.29-0.1-4.43-1.28l-12.14-12.62c-1.14-1.18-1.56-2.9-1.11-4.47
							l4.86-16.82c0.46-1.58,1.73-2.8,3.32-3.19l17-4.2c1.59-0.39,3.29,0.1,4.43,1.28l12.14,12.62c1.14,1.18,1.56,2.9,1.11,4.47
							l-4.86,16.82C156.38,115.43,155.11,116.66,153.52,117.05z M127.27,83.84c-1.25,0.31-2.24,1.26-2.6,2.5l-4.86,16.82
							c-0.35,1.23-0.02,2.57,0.86,3.5l12.14,12.62c0.89,0.92,2.22,1.31,3.46,1l17-4.2c1.25-0.31,2.24-1.27,2.6-2.5l4.86-16.82
							c0.35-1.23,0.02-2.57-0.86-3.5l-12.14-12.62c-0.89-0.92-2.22-1.31-3.46-1L127.27,83.84z"/>
						<path class="st3" d="M105.84,108.47l-17,4.2c-1.59,0.39-3.29-0.1-4.43-1.28L72.27,98.77c-1.14-1.18-1.56-2.9-1.11-4.47
							l4.86-16.82c0.46-1.58,1.73-2.8,3.32-3.2l17-4.2c1.59-0.39,3.29,0.1,4.43,1.28l12.14,12.62c1.14,1.18,1.56,2.9,1.11,4.47
							l-4.86,16.82C108.7,106.85,107.43,108.08,105.84,108.47z M79.59,75.26c-1.25,0.31-2.24,1.26-2.6,2.5l-4.86,16.82
							c-0.36,1.23-0.02,2.57,0.86,3.5l12.14,12.62c0.89,0.92,2.22,1.31,3.46,1l17-4.2c1.24-0.31,2.24-1.26,2.6-2.5l4.86-16.82
							c0.36-1.23,0.02-2.57-0.86-3.5l-12.14-12.62c-0.89-0.93-2.22-1.31-3.46-1L79.59,75.26z"/>
						<path class="st3" d="M144.03,78.66l-17,4.2c-1.59,0.39-3.29-0.1-4.43-1.28l-12.14-12.62c-1.14-1.18-1.56-2.9-1.11-4.47
							l4.86-16.82c0.46-1.58,1.73-2.8,3.32-3.2l17-4.2c1.59-0.39,3.29,0.1,4.43,1.28l12.14,12.62c1.14,1.18,1.56,2.9,1.11,4.47
							l-4.86,16.82C146.89,77.04,145.62,78.27,144.03,78.66z M117.78,45.45c-1.25,0.31-2.24,1.27-2.6,2.5l-4.86,16.82
							c-0.35,1.23-0.02,2.57,0.86,3.5l12.14,12.62c0.89,0.92,2.22,1.31,3.46,1l17-4.2c1.25-0.31,2.24-1.27,2.6-2.5l4.86-16.82
							c0.35-1.23,0.02-2.57-0.86-3.5l-12.14-12.62c-0.89-0.92-2.22-1.31-3.46-1L117.78,45.45z"/>
					</g>
				</g>
				<g class="st0">
					<g>
						<defs>
							
								<rect id="SVGID_9_" x="115.03" y="137.19" transform="matrix(0.9708 -0.24 0.24 0.9708 -37.7614 43.3874)" width="88.46" height="79.09"/>
						</defs>
						<clipPath id="SVGID_10_">
							<use xlink:href="#SVGID_9_"  style="overflow:visible;"/>
						</clipPath>
						<path class="st4" d="M220.18,202.4l-17,4.2c-1.59,0.39-3.29-0.1-4.43-1.28l-12.14-12.62c-1.14-1.18-1.56-2.9-1.11-4.47
							l4.86-16.82c0.46-1.58,1.73-2.8,3.32-3.2l17-4.2c1.59-0.39,3.29,0.1,4.43,1.28l12.14,12.62c1.14,1.18,1.56,2.9,1.11,4.47
							l-4.86,16.82C223.05,200.78,221.77,202.01,220.18,202.4z M193.93,169.19c-1.24,0.31-2.24,1.27-2.6,2.5l-4.86,16.82
							c-0.36,1.23-0.02,2.57,0.86,3.5l12.14,12.62c0.89,0.92,2.22,1.31,3.46,1l17-4.2c1.25-0.31,2.24-1.27,2.6-2.5l4.86-16.82
							c0.36-1.23,0.02-2.57-0.87-3.5l-12.14-12.62c-0.89-0.92-2.22-1.31-3.46-1L193.93,169.19z"/>
						<path class="st4" d="M181.99,232.21l-17,4.2c-1.59,0.39-3.29-0.1-4.43-1.28l-12.14-12.62c-1.14-1.18-1.56-2.9-1.11-4.47
							l4.86-16.82c0.46-1.58,1.73-2.8,3.32-3.2l17-4.2c1.59-0.39,3.29,0.1,4.43,1.28l12.14,12.62c1.14,1.18,1.56,2.9,1.11,4.47
							l-4.86,16.82C184.85,230.59,183.58,231.81,181.99,232.21z M155.74,199c-1.25,0.31-2.24,1.26-2.6,2.5l-4.86,16.82
							c-0.35,1.23-0.02,2.57,0.86,3.5l12.14,12.62c0.89,0.92,2.22,1.31,3.46,1l17-4.2c1.25-0.31,2.24-1.26,2.6-2.5l4.86-16.82
							c0.35-1.23,0.02-2.57-0.86-3.5L176.2,195.8c-0.89-0.93-2.22-1.31-3.46-1L155.74,199z"/>
						<path class="st4" d="M134.31,223.63l-17,4.2c-1.59,0.39-3.29-0.1-4.43-1.28l-12.14-12.62c-1.14-1.18-1.56-2.9-1.11-4.47
							l4.86-16.82c0.46-1.58,1.73-2.8,3.32-3.2l17-4.2c1.59-0.39,3.29,0.1,4.43,1.28l12.14,12.62c1.14,1.18,1.56,2.9,1.11,4.47
							l-4.86,16.82C137.17,222.01,135.9,223.24,134.31,223.63z M108.06,190.42c-1.25,0.31-2.24,1.27-2.6,2.5l-4.86,16.82
							c-0.36,1.23-0.02,2.57,0.86,3.5l12.14,12.62c0.89,0.92,2.22,1.31,3.46,1l17-4.2c1.24-0.31,2.24-1.27,2.6-2.5l4.86-16.82
							c0.36-1.23,0.02-2.57-0.86-3.5l-12.14-12.62c-0.89-0.92-2.22-1.31-3.46-1L108.06,190.42z"/>
						<path class="st4" d="M210.69,164.01l-17,4.2c-1.59,0.39-3.29-0.1-4.43-1.28l-12.14-12.62c-1.14-1.18-1.56-2.9-1.11-4.47
							l4.86-16.82c0.46-1.58,1.73-2.8,3.32-3.2l17-4.2c1.59-0.39,3.29,0.1,4.43,1.28l12.14,12.62c1.14,1.18,1.56,2.9,1.11,4.47
							l-4.86,16.82C213.55,162.39,212.28,163.62,210.69,164.01z M184.44,130.8c-1.24,0.31-2.24,1.27-2.6,2.5l-4.86,16.82
							c-0.36,1.23-0.02,2.57,0.86,3.5l12.14,12.62c0.89,0.92,2.22,1.31,3.46,1l17-4.2c1.25-0.31,2.24-1.26,2.6-2.5l4.86-16.82
							c0.36-1.23,0.03-2.57-0.86-3.5L204.9,127.6c-0.89-0.92-2.22-1.31-3.46-1L184.44,130.8z"/>
						<path class="st4" d="M172.5,193.82l-17,4.2c-1.59,0.39-3.29-0.1-4.43-1.28l-12.14-12.62c-1.14-1.18-1.56-2.9-1.11-4.47
							l4.86-16.82c0.46-1.58,1.73-2.8,3.32-3.19l17-4.2c1.59-0.39,3.29,0.1,4.43,1.28l12.14,12.62c1.14,1.18,1.56,2.9,1.11,4.47
							l-4.86,16.82C175.36,192.2,174.09,193.43,172.5,193.82z M146.25,160.61c-1.25,0.31-2.24,1.26-2.6,2.5l-4.86,16.82
							c-0.35,1.23-0.02,2.57,0.86,3.5l12.14,12.62c0.89,0.93,2.22,1.31,3.46,1l17-4.2c1.25-0.31,2.24-1.26,2.6-2.5l4.86-16.82
							c0.35-1.23,0.02-2.57-0.86-3.5l-12.14-12.62c-0.89-0.92-2.22-1.31-3.46-1L146.25,160.61z"/>
						<path class="st4" d="M124.82,185.24l-17,4.2c-1.59,0.39-3.29-0.1-4.43-1.28l-12.14-12.62c-1.14-1.18-1.56-2.9-1.11-4.47
							l4.86-16.82c0.46-1.58,1.73-2.8,3.32-3.2l17-4.2c1.59-0.39,3.29,0.1,4.43,1.28l12.14,12.62c1.14,1.18,1.56,2.9,1.11,4.47
							l-4.86,16.82C127.68,183.63,126.41,184.85,124.82,185.24z M98.57,152.04c-1.25,0.31-2.24,1.27-2.6,2.5l-4.86,16.82
							c-0.36,1.23-0.02,2.57,0.86,3.5l12.14,12.62c0.89,0.92,2.22,1.31,3.46,1l17-4.2c1.24-0.31,2.24-1.26,2.6-2.5l4.86-16.82
							c0.36-1.23,0.03-2.57-0.86-3.5l-12.14-12.62c-0.89-0.92-2.22-1.31-3.46-1L98.57,152.04z"/>
						<path class="st4" d="M163.01,155.44l-17,4.2c-1.59,0.39-3.29-0.1-4.43-1.28l-12.14-12.62c-1.14-1.18-1.56-2.9-1.11-4.47
							l4.86-16.82c0.46-1.58,1.73-2.8,3.32-3.19l17-4.2c1.59-0.39,3.29,0.1,4.43,1.28l12.14,12.62c1.14,1.18,1.56,2.9,1.11,4.47
							l-4.86,16.82C165.87,153.82,164.6,155.04,163.01,155.44z M136.76,122.23c-1.25,0.31-2.24,1.26-2.6,2.5l-4.86,16.82
							c-0.35,1.23-0.02,2.57,0.86,3.5l12.14,12.62c0.89,0.93,2.22,1.31,3.46,1l17-4.2c1.25-0.31,2.24-1.26,2.6-2.5l4.86-16.82
							c0.35-1.23,0.02-2.57-0.86-3.5l-12.14-12.62c-0.89-0.92-2.22-1.31-3.46-1L136.76,122.23z"/>
					</g>
				</g>
				<g class="st0">
					<g>
						<defs>
							
								<rect id="SVGID_11_" x="-27.79" y="-71.9" transform="matrix(0.9708 -0.24 0.24 0.9708 8.2469 2.9994)" width="88.46" height="79.09"/>
						</defs>
						<clipPath id="SVGID_12_">
							<use xlink:href="#SVGID_11_"  style="overflow:visible;"/>
						</clipPath>
						<path class="st5" d="M77.36-6.69l-17,4.2c-1.59,0.39-3.29-0.1-4.43-1.28L43.8-16.38c-1.14-1.18-1.56-2.9-1.11-4.47l4.86-16.82
							c0.46-1.58,1.73-2.8,3.32-3.19l17-4.2c1.59-0.39,3.29,0.1,4.43,1.28l12.14,12.62c1.14,1.18,1.56,2.9,1.11,4.47L80.69-9.88
							C80.23-8.31,78.96-7.08,77.36-6.69z M51.12-39.9c-1.25,0.31-2.24,1.26-2.6,2.5l-4.86,16.82c-0.36,1.23-0.03,2.57,0.86,3.5
							L56.66-4.46c0.89,0.93,2.22,1.31,3.46,1l17-4.2c1.24-0.31,2.24-1.26,2.6-2.5l4.86-16.82c0.36-1.23,0.02-2.57-0.86-3.5
							L71.58-43.1c-0.89-0.92-2.22-1.31-3.46-1L51.12-39.9z"/>
						<path class="st5" d="M39.17,23.12l-17,4.2c-1.59,0.39-3.29-0.1-4.43-1.28L5.61,13.42c-1.14-1.18-1.56-2.9-1.11-4.47L9.36-7.87
							c0.46-1.58,1.73-2.8,3.32-3.2l17-4.2c1.59-0.39,3.29,0.1,4.43,1.28L46.25-1.37c1.14,1.18,1.56,2.9,1.11,4.47l-4.86,16.82
							C42.04,21.5,40.77,22.73,39.17,23.12z M12.93-10.09c-1.24,0.31-2.24,1.26-2.6,2.5L5.47,9.23c-0.36,1.23-0.02,2.57,0.86,3.5
							l12.14,12.62c0.89,0.92,2.22,1.31,3.46,1l17-4.2c1.25-0.31,2.24-1.26,2.6-2.5l4.86-16.82c0.36-1.23,0.03-2.57-0.86-3.5
							L33.39-13.29c-0.89-0.93-2.22-1.31-3.46-1L12.93-10.09z"/>
						<path class="st5" d="M-8.51,14.54l-17,4.2c-1.59,0.39-3.29-0.1-4.43-1.28L-42.07,4.85c-1.14-1.18-1.56-2.9-1.11-4.47
							l4.86-16.82c0.46-1.58,1.73-2.8,3.32-3.19l17-4.2c1.59-0.39,3.29,0.1,4.43,1.28L-1.44-9.95c1.14,1.18,1.56,2.9,1.11,4.47
							l-4.86,16.82C-5.65,12.92-6.92,14.15-8.51,14.54z M-34.75-18.67c-1.25,0.31-2.24,1.26-2.6,2.5l-4.86,16.82
							c-0.35,1.23-0.02,2.57,0.86,3.5l12.14,12.62c0.89,0.93,2.22,1.31,3.46,1l17-4.2c1.25-0.31,2.24-1.26,2.6-2.5l4.86-16.82
							c0.35-1.23,0.02-2.57-0.86-3.5L-14.3-21.87c-0.89-0.92-2.22-1.31-3.46-1L-34.75-18.67z"/>
						<path class="st5" d="M67.87-45.08l-17,4.2c-1.59,0.39-3.29-0.1-4.43-1.28L34.31-54.77c-1.14-1.18-1.56-2.9-1.11-4.47
							l4.86-16.82c0.46-1.58,1.73-2.8,3.32-3.2l17-4.2c1.59-0.39,3.29,0.1,4.43,1.28l12.14,12.62c1.14,1.18,1.56,2.9,1.11,4.47
							l-4.86,16.82C70.74-46.69,69.47-45.47,67.87-45.08z M41.63-78.28c-1.25,0.31-2.24,1.27-2.6,2.5l-4.86,16.82
							c-0.36,1.23-0.03,2.57,0.86,3.5l12.14,12.62c0.89,0.92,2.22,1.31,3.46,1l17-4.2c1.24-0.31,2.24-1.27,2.6-2.5l4.86-16.82
							c0.36-1.23,0.02-2.57-0.86-3.5L62.09-81.49c-0.89-0.92-2.22-1.31-3.46-1L41.63-78.28z"/>
						<path class="st5" d="M29.68-15.27l-17,4.2c-1.59,0.39-3.29-0.1-4.43-1.28L-3.88-24.96c-1.14-1.18-1.56-2.9-1.11-4.47
							l4.86-16.82c0.46-1.58,1.73-2.8,3.32-3.2l17-4.2c1.59-0.39,3.29,0.1,4.43,1.28l12.14,12.62c1.14,1.18,1.56,2.9,1.11,4.47
							L33-18.46C32.55-16.89,31.28-15.66,29.68-15.27z M3.44-48.48c-1.24,0.31-2.24,1.26-2.6,2.5l-4.86,16.82
							c-0.36,1.23-0.02,2.57,0.86,3.5L8.98-13.04c0.89,0.92,2.22,1.31,3.46,1l17-4.2c1.25-0.31,2.24-1.26,2.6-2.5l4.86-16.82
							c0.36-1.23,0.02-2.57-0.86-3.5L23.9-51.68c-0.89-0.93-2.22-1.31-3.46-1L3.44-48.48z"/>
						<path class="st5" d="M-18-23.84l-17,4.2c-1.59,0.39-3.29-0.1-4.43-1.28l-12.14-12.62c-1.14-1.18-1.56-2.9-1.11-4.47
							l4.86-16.82c0.46-1.58,1.73-2.8,3.32-3.2l17-4.2c1.59-0.39,3.29,0.1,4.43,1.28l12.14,12.62c1.14,1.18,1.56,2.9,1.11,4.47
							l-4.86,16.82C-15.14-25.46-16.41-24.24-18-23.84z M-44.25-57.05c-1.25,0.31-2.24,1.27-2.6,2.5l-4.86,16.82
							c-0.35,1.23-0.02,2.57,0.86,3.5l12.14,12.62c0.89,0.92,2.22,1.31,3.46,1l17-4.2c1.25-0.31,2.24-1.27,2.6-2.5l4.86-16.82
							c0.35-1.23,0.02-2.57-0.86-3.5l-12.14-12.62c-0.89-0.92-2.22-1.31-3.46-1L-44.25-57.05z"/>
						<path class="st5" d="M20.19-53.65l-17,4.2c-1.59,0.39-3.29-0.1-4.43-1.28l-12.14-12.62c-1.14-1.18-1.56-2.9-1.11-4.47
							l4.86-16.82c0.46-1.58,1.73-2.8,3.32-3.19l17-4.2c1.59-0.39,3.29,0.1,4.43,1.28l12.14,12.62c1.14,1.18,1.56,2.9,1.11,4.47
							l-4.86,16.82C23.06-55.27,21.78-54.05,20.19-53.65z M-6.06-86.86c-1.24,0.31-2.24,1.26-2.6,2.5l-4.86,16.82
							c-0.36,1.23-0.02,2.57,0.86,3.5l12.14,12.62c0.89,0.92,2.22,1.31,3.46,1l17-4.2c1.25-0.31,2.24-1.26,2.6-2.5l4.86-16.82
							c0.36-1.23,0.02-2.57-0.86-3.5L14.4-90.07c-0.89-0.92-2.22-1.31-3.46-1L-6.06-86.86z"/>
					</g>
				</g>
				<g class="st0">
					<g>
						<defs>
							
								<rect id="SVGID_13_" x="-8.81" y="4.87" transform="matrix(0.9708 -0.24 0.24 0.9708 -9.6244 9.7989)" width="88.46" height="79.08"/>
						</defs>
						<clipPath id="SVGID_14_">
							<use xlink:href="#SVGID_13_"  style="overflow:visible;"/>
						</clipPath>
						<path class="st6" d="M96.35,70.08l-17,4.2c-1.59,0.39-3.29-0.1-4.43-1.28L62.78,60.39c-1.14-1.18-1.56-2.9-1.11-4.47
							l4.86-16.82c0.46-1.58,1.73-2.8,3.32-3.19l17-4.2c1.59-0.39,3.29,0.1,4.43,1.28l12.14,12.62c1.14,1.18,1.56,2.9,1.11,4.47
							l-4.86,16.82C99.21,68.47,97.94,69.69,96.35,70.08z M70.1,36.88c-1.25,0.31-2.24,1.26-2.6,2.5l-4.86,16.82
							c-0.36,1.23-0.02,2.57,0.86,3.5l12.14,12.62c0.89,0.92,2.22,1.31,3.46,1l17-4.2c1.24-0.31,2.24-1.26,2.6-2.5l4.86-16.82
							c0.36-1.23,0.02-2.57-0.86-3.5L90.56,33.67c-0.89-0.92-2.22-1.31-3.46-1L70.1,36.88z"/>
						<path class="st6" d="M58.15,99.89l-17,4.2c-1.59,0.39-3.29-0.1-4.43-1.28L24.59,90.2c-1.14-1.18-1.56-2.9-1.11-4.47
							l4.86-16.82c0.46-1.58,1.73-2.8,3.32-3.2l17-4.2c1.59-0.39,3.29,0.1,4.43,1.28l12.14,12.62c1.14,1.18,1.56,2.9,1.11,4.47
							L61.47,96.7C61.02,98.28,59.75,99.5,58.15,99.89z M31.91,66.68c-1.24,0.31-2.24,1.27-2.6,2.5L24.45,86
							c-0.36,1.23-0.03,2.57,0.86,3.5l12.14,12.62c0.89,0.92,2.22,1.31,3.46,1l17-4.2c1.25-0.31,2.24-1.27,2.6-2.5l4.86-16.82
							c0.36-1.23,0.02-2.57-0.86-3.5L52.37,63.48c-0.89-0.92-2.22-1.31-3.46-1L31.91,66.68z"/>
						<path class="st6" d="M10.47,91.31l-17,4.2c-1.59,0.39-3.29-0.1-4.43-1.28l-12.14-12.62c-1.14-1.18-1.56-2.9-1.11-4.47
							l4.86-16.82c0.46-1.58,1.73-2.8,3.32-3.19l17-4.2c1.59-0.39,3.29,0.1,4.43,1.28l12.14,12.62c1.14,1.18,1.56,2.9,1.11,4.47
							l-4.86,16.82C13.34,89.7,12.06,90.92,10.47,91.31z M-15.77,58.11c-1.25,0.31-2.24,1.26-2.6,2.5l-4.86,16.82
							c-0.35,1.23-0.02,2.57,0.86,3.5l12.14,12.62c0.89,0.92,2.22,1.31,3.46,1l17-4.2c1.25-0.31,2.24-1.26,2.6-2.5l4.86-16.82
							c0.35-1.23,0.02-2.57-0.86-3.5L4.68,54.9c-0.89-0.92-2.22-1.31-3.46-1L-15.77,58.11z"/>
						<path class="st6" d="M86.86,31.7l-17,4.2c-1.59,0.39-3.29-0.1-4.43-1.28L53.29,22c-1.14-1.18-1.56-2.9-1.11-4.47l4.86-16.82
							c0.46-1.58,1.73-2.8,3.32-3.19l17-4.2c1.59-0.39,3.29,0.1,4.43,1.28L93.93,7.21c1.14,1.18,1.56,2.9,1.11,4.47L90.18,28.5
							C89.72,30.08,88.45,31.3,86.86,31.7z M60.61-1.51c-1.25,0.31-2.24,1.26-2.6,2.5l-4.86,16.82c-0.36,1.23-0.02,2.57,0.86,3.5
							l12.14,12.62c0.89,0.93,2.22,1.31,3.46,1l17-4.2c1.24-0.31,2.24-1.26,2.6-2.5l4.86-16.82c0.36-1.23,0.02-2.57-0.86-3.5
							L81.07-4.71c-0.89-0.92-2.22-1.31-3.46-1L60.61-1.51z"/>
						<path class="st6" d="M48.66,61.51l-17,4.2c-1.59,0.39-3.29-0.1-4.43-1.28L15.1,51.81c-1.14-1.18-1.56-2.9-1.11-4.47
							l4.86-16.82c0.46-1.58,1.73-2.8,3.32-3.2l17-4.2c1.59-0.39,3.29,0.1,4.43,1.28l12.14,12.62c1.14,1.18,1.56,2.9,1.11,4.47
							l-4.86,16.82C51.53,59.89,50.26,61.11,48.66,61.51z M22.42,28.3c-1.24,0.31-2.24,1.27-2.6,2.5l-4.86,16.82
							c-0.36,1.23-0.02,2.57,0.86,3.5l12.14,12.62c0.89,0.92,2.22,1.31,3.46,1l17-4.2c1.25-0.31,2.24-1.26,2.6-2.5l4.86-16.82
							c0.36-1.23,0.03-2.57-0.86-3.5L42.88,25.1c-0.89-0.92-2.22-1.31-3.46-1L22.42,28.3z"/>
						<path class="st6" d="M0.98,52.93l-17,4.2c-1.59,0.39-3.29-0.1-4.43-1.28l-12.14-12.62c-1.14-1.18-1.56-2.9-1.11-4.47
							l4.86-16.82c0.46-1.58,1.73-2.8,3.32-3.19l17-4.2c1.59-0.39,3.29,0.1,4.43,1.28L8.05,28.44c1.14,1.18,1.56,2.9,1.11,4.47
							L4.3,49.73C3.85,51.31,2.57,52.53,0.98,52.93z M-25.26,19.72c-1.25,0.31-2.24,1.26-2.6,2.5l-4.86,16.82
							c-0.35,1.23-0.02,2.57,0.86,3.5l12.14,12.62c0.89,0.93,2.22,1.31,3.46,1l17-4.2c1.25-0.31,2.24-1.26,2.6-2.5L8.2,32.63
							c0.35-1.23,0.02-2.57-0.86-3.5L-4.81,16.52c-0.89-0.92-2.22-1.31-3.46-1L-25.26,19.72z"/>
						<path class="st6" d="M39.17,23.12l-17,4.2c-1.59,0.39-3.29-0.1-4.43-1.28L5.61,13.42c-1.14-1.18-1.56-2.9-1.11-4.47L9.36-7.87
							c0.46-1.58,1.73-2.8,3.32-3.2l17-4.2c1.59-0.39,3.29,0.1,4.43,1.28L46.25-1.37c1.14,1.18,1.56,2.9,1.11,4.47l-4.86,16.82
							C42.04,21.5,40.77,22.73,39.17,23.12z M12.93-10.09c-1.24,0.31-2.24,1.26-2.6,2.5L5.47,9.23c-0.36,1.23-0.02,2.57,0.86,3.5
							l12.14,12.62c0.89,0.92,2.22,1.31,3.46,1l17-4.2c1.25-0.31,2.24-1.26,2.6-2.5l4.86-16.82c0.36-1.23,0.03-2.57-0.86-3.5
							L33.39-13.29c-0.89-0.93-2.22-1.31-3.46-1L12.93-10.09z"/>
					</g>
				</g>
				<g class="st0">
					<g>
						<defs>
							
								<rect id="SVGID_15_" x="10.17" y="81.64" transform="matrix(0.9708 -0.24 0.24 0.9708 -27.4955 16.5983)" width="88.46" height="79.08"/>
						</defs>
						<clipPath id="SVGID_16_">
							<use xlink:href="#SVGID_15_"  style="overflow:visible;"/>
						</clipPath>
						<path class="st7" d="M115.33,146.86l-17,4.2c-1.59,0.39-3.29-0.1-4.43-1.28l-12.14-12.62c-1.14-1.18-1.56-2.9-1.11-4.47
							l4.86-16.82c0.46-1.58,1.73-2.8,3.32-3.2l17-4.2c1.59-0.39,3.29,0.1,4.43,1.28l12.14,12.62c1.14,1.18,1.56,2.9,1.11,4.47
							l-4.86,16.82C118.19,145.24,116.92,146.46,115.33,146.86z M89.08,113.65c-1.25,0.31-2.24,1.26-2.6,2.5l-4.86,16.82
							c-0.36,1.23-0.02,2.57,0.86,3.5l12.14,12.62c0.89,0.92,2.22,1.31,3.46,1l17-4.2c1.24-0.31,2.24-1.26,2.6-2.5l4.86-16.82
							c0.36-1.23,0.02-2.57-0.86-3.5l-12.14-12.62c-0.89-0.93-2.22-1.31-3.46-1L89.08,113.65z"/>
						<path class="st7" d="M77.13,176.67l-17,4.2c-1.59,0.39-3.29-0.1-4.43-1.28l-12.14-12.62c-1.14-1.18-1.56-2.9-1.11-4.47
							l4.86-16.82c0.46-1.58,1.73-2.8,3.32-3.19l17-4.2c1.59-0.39,3.29,0.1,4.43,1.28l12.14,12.62c1.14,1.18,1.56,2.9,1.11,4.47
							l-4.86,16.82C80,175.05,78.73,176.27,77.13,176.67z M50.89,143.46c-1.24,0.31-2.24,1.26-2.6,2.5l-4.86,16.82
							c-0.36,1.23-0.02,2.57,0.86,3.5l12.14,12.62c0.89,0.93,2.22,1.31,3.46,1l17-4.2c1.25-0.31,2.24-1.26,2.6-2.5l4.86-16.82
							c0.36-1.23,0.02-2.57-0.86-3.5l-12.14-12.62c-0.89-0.92-2.22-1.31-3.46-1L50.89,143.46z"/>
						<path class="st7" d="M29.45,168.09l-17,4.2c-1.59,0.39-3.29-0.1-4.43-1.28l-12.14-12.62c-1.14-1.18-1.56-2.9-1.11-4.47
							l4.86-16.82c0.46-1.58,1.73-2.8,3.32-3.2l17-4.2c1.59-0.39,3.29,0.1,4.43,1.28l12.14,12.62c1.14,1.18,1.56,2.9,1.11,4.47
							l-4.86,16.82C32.32,166.47,31.04,167.69,29.45,168.09z M3.21,134.88c-1.25,0.31-2.24,1.26-2.6,2.5l-4.86,16.82
							c-0.35,1.23-0.02,2.57,0.86,3.5l12.14,12.62c0.89,0.92,2.22,1.31,3.46,1l17-4.2c1.25-0.31,2.24-1.26,2.6-2.5l4.86-16.82
							c0.35-1.23,0.02-2.57-0.86-3.5l-12.14-12.62c-0.89-0.93-2.22-1.31-3.46-1L3.21,134.88z"/>
						<path class="st7" d="M105.84,108.47l-17,4.2c-1.59,0.39-3.29-0.1-4.43-1.28L72.27,98.77c-1.14-1.18-1.56-2.9-1.11-4.47
							l4.86-16.82c0.46-1.58,1.73-2.8,3.32-3.2l17-4.2c1.59-0.39,3.29,0.1,4.43,1.28l12.14,12.62c1.14,1.18,1.56,2.9,1.11,4.47
							l-4.86,16.82C108.7,106.85,107.43,108.08,105.84,108.47z M79.59,75.26c-1.25,0.31-2.24,1.26-2.6,2.5l-4.86,16.82
							c-0.36,1.23-0.02,2.57,0.86,3.5l12.14,12.62c0.89,0.92,2.22,1.31,3.46,1l17-4.2c1.24-0.31,2.24-1.26,2.6-2.5l4.86-16.82
							c0.36-1.23,0.02-2.57-0.86-3.5l-12.14-12.62c-0.89-0.93-2.22-1.31-3.46-1L79.59,75.26z"/>
						<path class="st7" d="M67.64,138.28l-17,4.2c-1.59,0.39-3.29-0.1-4.43-1.28l-12.14-12.62c-1.14-1.18-1.56-2.9-1.11-4.47
							l4.86-16.82c0.46-1.58,1.73-2.8,3.32-3.19l17-4.2c1.59-0.39,3.29,0.1,4.43,1.28l12.14,12.62c1.14,1.18,1.56,2.9,1.11,4.47
							l-4.86,16.82C70.51,136.66,69.24,137.89,67.64,138.28z M41.4,105.07c-1.24,0.31-2.24,1.26-2.6,2.5l-4.86,16.82
							c-0.36,1.23-0.03,2.57,0.86,3.5l12.14,12.62c0.89,0.92,2.22,1.31,3.46,1l17-4.2c1.25-0.31,2.24-1.27,2.6-2.5l4.86-16.82
							c0.36-1.23,0.02-2.57-0.86-3.5l-12.14-12.62c-0.89-0.92-2.22-1.31-3.46-1L41.4,105.07z"/>
						<path class="st7" d="M19.96,129.7l-17,4.2c-1.59,0.39-3.29-0.1-4.43-1.28l-12.14-12.62c-1.14-1.18-1.56-2.9-1.11-4.47
							l4.86-16.82c0.46-1.58,1.73-2.8,3.32-3.2l17-4.2c1.59-0.39,3.29,0.1,4.43,1.28l12.14,12.62c1.14,1.18,1.56,2.9,1.11,4.47
							l-4.86,16.82C22.83,128.08,21.55,129.31,19.96,129.7z M-6.28,96.49c-1.25,0.31-2.24,1.26-2.6,2.5l-4.86,16.82
							c-0.35,1.23-0.02,2.57,0.86,3.5l12.14,12.62c0.89,0.92,2.22,1.31,3.46,1l17-4.2c1.25-0.31,2.24-1.26,2.6-2.5l4.86-16.82
							c0.35-1.23,0.02-2.57-0.86-3.5L14.17,93.29c-0.89-0.93-2.22-1.31-3.46-1L-6.28,96.49z"/>
						<path class="st7" d="M58.15,99.89l-17,4.2c-1.59,0.39-3.29-0.1-4.43-1.28L24.59,90.2c-1.14-1.18-1.56-2.9-1.11-4.47
							l4.86-16.82c0.46-1.58,1.73-2.8,3.32-3.2l17-4.2c1.59-0.39,3.29,0.1,4.43,1.28l12.14,12.62c1.14,1.18,1.56,2.9,1.11,4.47
							L61.47,96.7C61.02,98.28,59.75,99.5,58.15,99.89z M31.91,66.68c-1.24,0.31-2.24,1.27-2.6,2.5L24.45,86
							c-0.36,1.23-0.03,2.57,0.86,3.5l12.14,12.62c0.89,0.92,2.22,1.31,3.46,1l17-4.2c1.25-0.31,2.24-1.27,2.6-2.5l4.86-16.82
							c0.36-1.23,0.02-2.57-0.86-3.5L52.37,63.48c-0.89-0.92-2.22-1.31-3.46-1L31.91,66.68z"/>
					</g>
				</g>
				<g class="st0">
					<g>
						<defs>
							
								<rect id="SVGID_17_" x="29.15" y="158.42" transform="matrix(0.9708 -0.24 0.24 0.9708 -45.3669 23.3978)" width="88.46" height="79.09"/>
						</defs>
						<clipPath id="SVGID_18_">
							<use xlink:href="#SVGID_17_"  style="overflow:visible;"/>
						</clipPath>
						<path class="st8" d="M134.31,223.63l-17,4.2c-1.59,0.39-3.29-0.1-4.43-1.28l-12.14-12.62c-1.14-1.18-1.56-2.9-1.11-4.47
							l4.86-16.82c0.46-1.58,1.73-2.8,3.32-3.2l17-4.2c1.59-0.39,3.29,0.1,4.43,1.28l12.14,12.62c1.14,1.18,1.56,2.9,1.11,4.47
							l-4.86,16.82C137.17,222.01,135.9,223.24,134.31,223.63z M108.06,190.42c-1.25,0.31-2.24,1.27-2.6,2.5l-4.86,16.82
							c-0.36,1.23-0.02,2.57,0.86,3.5l12.14,12.62c0.89,0.92,2.22,1.31,3.46,1l17-4.2c1.24-0.31,2.24-1.27,2.6-2.5l4.86-16.82
							c0.36-1.23,0.02-2.57-0.86-3.5l-12.14-12.62c-0.89-0.92-2.22-1.31-3.46-1L108.06,190.42z"/>
						<path class="st8" d="M96.11,253.44l-17,4.2c-1.59,0.39-3.29-0.1-4.43-1.28l-12.14-12.62c-1.14-1.18-1.56-2.9-1.11-4.47
							l4.86-16.82c0.46-1.58,1.73-2.8,3.32-3.2l17-4.2c1.59-0.39,3.29,0.1,4.43,1.28l12.14,12.62c1.14,1.18,1.56,2.9,1.11,4.47
							l-4.86,16.82C98.98,251.82,97.71,253.05,96.11,253.44z M69.87,220.23c-1.24,0.31-2.24,1.26-2.6,2.5l-4.86,16.82
							c-0.36,1.23-0.02,2.57,0.86,3.5l12.14,12.62c0.89,0.92,2.22,1.31,3.46,1l17-4.2c1.25-0.31,2.24-1.26,2.6-2.5l4.86-16.82
							c0.36-1.23,0.02-2.57-0.86-3.5l-12.14-12.62c-0.89-0.93-2.22-1.31-3.46-1L69.87,220.23z"/>
						<path class="st8" d="M48.43,244.86l-17,4.2c-1.59,0.39-3.29-0.1-4.43-1.28l-12.14-12.62c-1.14-1.18-1.56-2.9-1.11-4.47
							l4.86-16.82c0.46-1.58,1.73-2.8,3.32-3.2l17-4.2c1.59-0.39,3.29,0.1,4.43,1.28l12.14,12.62c1.14,1.18,1.56,2.9,1.11,4.47
							l-4.86,16.82C51.3,243.24,50.03,244.47,48.43,244.86z M22.19,211.65c-1.25,0.31-2.24,1.27-2.6,2.5l-4.86,16.82
							c-0.35,1.23-0.02,2.57,0.86,3.5l12.14,12.62c0.89,0.92,2.22,1.31,3.46,1l17-4.2c1.25-0.31,2.24-1.27,2.6-2.5l4.86-16.82
							c0.35-1.23,0.02-2.57-0.86-3.5l-12.14-12.62c-0.89-0.92-2.22-1.31-3.46-1L22.19,211.65z"/>
						<path class="st8" d="M124.82,185.24l-17,4.2c-1.59,0.39-3.29-0.1-4.43-1.28l-12.14-12.62c-1.14-1.18-1.56-2.9-1.11-4.47
							l4.86-16.82c0.46-1.58,1.73-2.8,3.32-3.2l17-4.2c1.59-0.39,3.29,0.1,4.43,1.28l12.14,12.62c1.14,1.18,1.56,2.9,1.11,4.47
							l-4.86,16.82C127.68,183.63,126.41,184.85,124.82,185.24z M98.57,152.04c-1.25,0.31-2.24,1.27-2.6,2.5l-4.86,16.82
							c-0.36,1.23-0.02,2.57,0.86,3.5l12.14,12.62c0.89,0.92,2.22,1.31,3.46,1l17-4.2c1.24-0.31,2.24-1.26,2.6-2.5l4.86-16.82
							c0.36-1.23,0.03-2.57-0.86-3.5l-12.14-12.62c-0.89-0.92-2.22-1.31-3.46-1L98.57,152.04z"/>
						<path class="st8" d="M86.62,215.05l-17,4.2c-1.59,0.39-3.29-0.1-4.43-1.28l-12.14-12.62c-1.14-1.18-1.56-2.9-1.11-4.47
							l4.86-16.82c0.46-1.58,1.73-2.8,3.32-3.19l17-4.2c1.59-0.39,3.29,0.1,4.43,1.28l12.14,12.62c1.14,1.18,1.56,2.9,1.11,4.47
							l-4.86,16.82C89.49,213.43,88.22,214.66,86.62,215.05z M60.38,181.84c-1.24,0.31-2.24,1.26-2.6,2.5l-4.86,16.82
							c-0.36,1.23-0.02,2.57,0.86,3.5l12.14,12.62c0.89,0.93,2.22,1.31,3.46,1l17-4.2c1.25-0.31,2.24-1.26,2.6-2.5l4.86-16.82
							c0.36-1.23,0.02-2.57-0.86-3.5l-12.14-12.62c-0.89-0.92-2.22-1.31-3.46-1L60.38,181.84z"/>
						<path class="st8" d="M38.94,206.47l-17,4.2c-1.59,0.39-3.29-0.1-4.43-1.28L5.38,196.78c-1.14-1.18-1.56-2.9-1.11-4.47
							l4.86-16.82c0.46-1.58,1.73-2.8,3.32-3.2l17-4.2c1.59-0.39,3.29,0.1,4.43,1.28l12.14,12.62c1.14,1.18,1.56,2.9,1.11,4.47
							l-4.86,16.82C41.81,204.86,40.53,206.08,38.94,206.47z M12.7,173.27c-1.25,0.31-2.24,1.27-2.6,2.5l-4.86,16.82
							c-0.35,1.23-0.02,2.57,0.86,3.5l12.14,12.62c0.89,0.92,2.22,1.31,3.46,1l17-4.2c1.25-0.31,2.24-1.26,2.6-2.5l4.86-16.82
							c0.35-1.23,0.02-2.57-0.86-3.5l-12.14-12.62c-0.89-0.92-2.22-1.31-3.46-1L12.7,173.27z"/>
						<path class="st8" d="M77.13,176.67l-17,4.2c-1.59,0.39-3.29-0.1-4.43-1.28l-12.14-12.62c-1.14-1.18-1.56-2.9-1.11-4.47
							l4.86-16.82c0.46-1.58,1.73-2.8,3.32-3.19l17-4.2c1.59-0.39,3.29,0.1,4.43,1.28l12.14,12.62c1.14,1.18,1.56,2.9,1.11,4.47
							l-4.86,16.82C80,175.05,78.73,176.27,77.13,176.67z M50.89,143.46c-1.24,0.31-2.24,1.26-2.6,2.5l-4.86,16.82
							c-0.36,1.23-0.02,2.57,0.86,3.5l12.14,12.62c0.89,0.93,2.22,1.31,3.46,1l17-4.2c1.25-0.31,2.24-1.26,2.6-2.5l4.86-16.82
							c0.36-1.23,0.02-2.57-0.86-3.5l-12.14-12.62c-0.89-0.92-2.22-1.31-3.46-1L50.89,143.46z"/>
					</g>
				</g>
				<g class="st0">
					<g>
						<defs>
							
								<rect id="SVGID_19_" x="-113.67" y="-50.67" transform="matrix(0.9708 -0.24 0.24 0.9708 0.6414 -16.9903)" width="88.46" height="79.09"/>
						</defs>
						<clipPath id="SVGID_20_">
							<use xlink:href="#SVGID_19_"  style="overflow:visible;"/>
						</clipPath>
						<path class="st9" d="M-8.51,14.54l-17,4.2c-1.59,0.39-3.29-0.1-4.43-1.28L-42.07,4.85c-1.14-1.18-1.56-2.9-1.11-4.47
							l4.86-16.82c0.46-1.58,1.73-2.8,3.32-3.19l17-4.2c1.59-0.39,3.29,0.1,4.43,1.28L-1.44-9.95c1.14,1.18,1.56,2.9,1.11,4.47
							l-4.86,16.82C-5.65,12.92-6.92,14.15-8.51,14.54z M-34.75-18.67c-1.25,0.31-2.24,1.26-2.6,2.5l-4.86,16.82
							c-0.35,1.23-0.02,2.57,0.86,3.5l12.14,12.62c0.89,0.93,2.22,1.31,3.46,1l17-4.2c1.25-0.31,2.24-1.26,2.6-2.5l4.86-16.82
							c0.35-1.23,0.02-2.57-0.86-3.5L-14.3-21.87c-0.89-0.92-2.22-1.31-3.46-1L-34.75-18.67z"/>
						<path class="st9" d="M-46.7,44.35l-17,4.2c-1.59,0.39-3.29-0.1-4.43-1.28l-12.14-12.62c-1.14-1.18-1.56-2.9-1.11-4.47
							l4.86-16.82c0.46-1.58,1.73-2.8,3.32-3.2l17-4.2c1.59-0.39,3.29,0.1,4.43,1.28l12.14,12.62c1.14,1.18,1.56,2.9,1.11,4.47
							l-4.86,16.82C-43.84,42.73-45.11,43.96-46.7,44.35z M-72.95,11.14c-1.25,0.31-2.24,1.26-2.6,2.5l-4.86,16.82
							c-0.36,1.23-0.02,2.57,0.86,3.5l12.14,12.62c0.89,0.92,2.22,1.31,3.46,1l17-4.2c1.24-0.31,2.24-1.26,2.6-2.5l4.86-16.82
							c0.36-1.23,0.03-2.57-0.86-3.5L-52.49,7.94c-0.89-0.93-2.22-1.31-3.46-1L-72.95,11.14z"/>
						<path class="st9" d="M-94.38,35.77l-17,4.2c-1.59,0.39-3.29-0.1-4.43-1.28l-12.14-12.62c-1.14-1.18-1.56-2.9-1.11-4.47
							l4.86-16.82c0.46-1.58,1.73-2.8,3.32-3.19l17-4.2c1.59-0.39,3.29,0.1,4.43,1.28l12.14,12.62c1.14,1.18,1.56,2.9,1.11,4.47
							l-4.86,16.82C-91.52,34.15-92.79,35.38-94.38,35.77z M-120.63,2.56c-1.24,0.31-2.24,1.26-2.6,2.5l-4.86,16.82
							c-0.36,1.23-0.03,2.57,0.86,3.5L-115.08,38c0.89,0.93,2.22,1.31,3.46,1l17-4.2c1.25-0.31,2.24-1.26,2.6-2.5l4.86-16.82
							c0.36-1.23,0.02-2.57-0.86-3.5l-12.14-12.62c-0.89-0.92-2.22-1.31-3.46-1L-120.63,2.56z"/>
						<path class="st9" d="M-18-23.84l-17,4.2c-1.59,0.39-3.29-0.1-4.43-1.28l-12.14-12.62c-1.14-1.18-1.56-2.9-1.11-4.47
							l4.86-16.82c0.46-1.58,1.73-2.8,3.32-3.2l17-4.2c1.59-0.39,3.29,0.1,4.43,1.28l12.14,12.62c1.14,1.18,1.56,2.9,1.11,4.47
							l-4.86,16.82C-15.14-25.46-16.41-24.24-18-23.84z M-44.25-57.05c-1.25,0.31-2.24,1.27-2.6,2.5l-4.86,16.82
							c-0.35,1.23-0.02,2.57,0.86,3.5l12.14,12.62c0.89,0.92,2.22,1.31,3.46,1l17-4.2c1.25-0.31,2.24-1.27,2.6-2.5l4.86-16.82
							c0.35-1.23,0.02-2.57-0.86-3.5l-12.14-12.62c-0.89-0.92-2.22-1.31-3.46-1L-44.25-57.05z"/>
						<path class="st9" d="M-56.19,5.96l-17,4.2c-1.59,0.39-3.29-0.1-4.43-1.28L-89.75-3.73c-1.14-1.18-1.56-2.9-1.11-4.47
							L-86-25.03c0.46-1.58,1.73-2.8,3.32-3.2l17-4.2c1.59-0.39,3.29,0.1,4.43,1.28l12.14,12.62c1.14,1.18,1.56,2.9,1.11,4.47
							l-4.86,16.82C-53.33,4.35-54.6,5.57-56.19,5.96z M-82.44-27.24c-1.25,0.31-2.24,1.26-2.6,2.5l-4.86,16.82
							c-0.36,1.23-0.02,2.57,0.86,3.5l12.14,12.62c0.89,0.92,2.22,1.31,3.46,1l17-4.2c1.24-0.31,2.24-1.26,2.6-2.5l4.86-16.82
							c0.36-1.23,0.02-2.57-0.86-3.5l-12.14-12.62c-0.89-0.93-2.22-1.31-3.46-1L-82.44-27.24z"/>
						<path class="st9" d="M-103.87-2.61l-17,4.2c-1.59,0.39-3.29-0.1-4.43-1.28l-12.14-12.62c-1.14-1.18-1.56-2.9-1.11-4.47
							l4.86-16.82c0.46-1.58,1.73-2.8,3.32-3.2l17-4.2c1.59-0.39,3.29,0.1,4.43,1.28L-96.8-27.1c1.14,1.18,1.56,2.9,1.11,4.47
							l-4.86,16.82C-101.01-4.23-102.28-3.01-103.87-2.61z M-130.12-35.82c-1.24,0.31-2.24,1.27-2.6,2.5l-4.86,16.82
							c-0.36,1.23-0.03,2.57,0.86,3.5l12.14,12.62c0.89,0.92,2.22,1.31,3.46,1l17-4.2c1.25-0.31,2.24-1.27,2.6-2.5l4.86-16.82
							c0.36-1.23,0.02-2.57-0.86-3.5l-12.14-12.62c-0.89-0.92-2.22-1.31-3.46-1L-130.12-35.82z"/>
						<path class="st9" d="M-65.68-32.42l-17,4.2c-1.59,0.39-3.29-0.1-4.43-1.28l-12.14-12.62c-1.14-1.18-1.56-2.9-1.11-4.47
							l4.86-16.82c0.46-1.58,1.73-2.8,3.32-3.19l17-4.2c1.59-0.39,3.29,0.1,4.43,1.28l12.14,12.62c1.14,1.18,1.56,2.9,1.11,4.47
							l-4.86,16.82C-62.82-34.04-64.09-32.82-65.68-32.42z M-91.93-65.63c-1.25,0.31-2.24,1.26-2.6,2.5l-4.86,16.82
							c-0.36,1.23-0.02,2.57,0.86,3.5l12.14,12.62c0.89,0.92,2.22,1.31,3.46,1l17-4.2c1.24-0.31,2.24-1.26,2.6-2.5l4.86-16.82
							c0.36-1.23,0.02-2.57-0.86-3.5l-12.14-12.62c-0.89-0.92-2.22-1.31-3.46-1L-91.93-65.63z"/>
					</g>
				</g>
				<g class="st0">
					<g>
						<defs>
							
								<rect id="SVGID_21_" x="-94.68" y="26.1" transform="matrix(0.9708 -0.24 0.24 0.9708 -17.2299 -10.1908)" width="88.46" height="79.08"/>
						</defs>
						<clipPath id="SVGID_22_">
							<use xlink:href="#SVGID_21_"  style="overflow:visible;"/>
						</clipPath>
						<path class="st10" d="M10.47,91.31l-17,4.2c-1.59,0.39-3.29-0.1-4.43-1.28l-12.14-12.62c-1.14-1.18-1.56-2.9-1.11-4.47
							l4.86-16.82c0.46-1.58,1.73-2.8,3.32-3.19l17-4.2c1.59-0.39,3.29,0.1,4.43,1.28l12.14,12.62c1.14,1.18,1.56,2.9,1.11,4.47
							l-4.86,16.82C13.34,89.7,12.06,90.92,10.47,91.31z M-15.77,58.11c-1.25,0.31-2.24,1.26-2.6,2.5l-4.86,16.82
							c-0.35,1.23-0.02,2.57,0.86,3.5l12.14,12.62c0.89,0.92,2.22,1.31,3.46,1l17-4.2c1.25-0.31,2.24-1.26,2.6-2.5l4.86-16.82
							c0.35-1.23,0.02-2.57-0.86-3.5L4.68,54.9c-0.89-0.92-2.22-1.31-3.46-1L-15.77,58.11z"/>
						<path class="st10" d="M-27.72,121.12l-17,4.2c-1.59,0.39-3.29-0.1-4.43-1.28l-12.14-12.62c-1.14-1.18-1.56-2.9-1.11-4.47
							l4.86-16.82c0.46-1.58,1.73-2.8,3.32-3.2l17-4.2c1.59-0.39,3.29,0.1,4.43,1.28l12.14,12.62c1.14,1.18,1.56,2.9,1.11,4.47
							l-4.86,16.82C-24.85,119.51-26.13,120.73-27.72,121.12z M-53.97,87.91c-1.25,0.31-2.24,1.27-2.6,2.5l-4.86,16.82
							c-0.36,1.23-0.03,2.57,0.86,3.5l12.14,12.62c0.89,0.92,2.22,1.31,3.46,1l17-4.2c1.24-0.31,2.24-1.27,2.6-2.5l4.86-16.82
							c0.36-1.23,0.02-2.57-0.86-3.5l-12.14-12.62c-0.89-0.92-2.22-1.31-3.46-1L-53.97,87.91z"/>
						<path class="st10" d="M-75.4,112.55l-17,4.2c-1.59,0.39-3.29-0.1-4.43-1.28l-12.14-12.62c-1.14-1.18-1.56-2.9-1.11-4.47
							l4.86-16.82c0.46-1.58,1.73-2.8,3.32-3.19l17-4.2c1.59-0.39,3.29,0.1,4.43,1.28l12.14,12.62c1.14,1.18,1.56,2.9,1.11,4.47
							l-4.86,16.82C-72.54,110.93-73.81,112.15-75.4,112.55z M-101.65,79.34c-1.24,0.31-2.24,1.26-2.6,2.5l-4.86,16.82
							c-0.36,1.23-0.02,2.57,0.86,3.5l12.14,12.62c0.89,0.92,2.22,1.31,3.46,1l17-4.2c1.25-0.31,2.24-1.26,2.6-2.5l4.86-16.82
							c0.36-1.23,0.02-2.57-0.86-3.5l-12.14-12.62c-0.89-0.92-2.22-1.31-3.46-1L-101.65,79.34z"/>
						<path class="st10" d="M0.98,52.93l-17,4.2c-1.59,0.39-3.29-0.1-4.43-1.28l-12.14-12.62c-1.14-1.18-1.56-2.9-1.11-4.47
							l4.86-16.82c0.46-1.58,1.73-2.8,3.32-3.19l17-4.2c1.59-0.39,3.29,0.1,4.43,1.28L8.05,28.44c1.14,1.18,1.56,2.9,1.11,4.47
							L4.3,49.73C3.85,51.31,2.57,52.53,0.98,52.93z M-25.26,19.72c-1.25,0.31-2.24,1.26-2.6,2.5l-4.86,16.82
							c-0.35,1.23-0.02,2.57,0.86,3.5l12.14,12.62c0.89,0.93,2.22,1.31,3.46,1l17-4.2c1.25-0.31,2.24-1.26,2.6-2.5L8.2,32.63
							c0.35-1.23,0.02-2.57-0.86-3.5L-4.81,16.52c-0.89-0.92-2.22-1.31-3.46-1L-25.26,19.72z"/>
						<path class="st10" d="M-37.21,82.74l-17,4.2c-1.59,0.39-3.29-0.1-4.43-1.28l-12.14-12.62c-1.14-1.18-1.56-2.9-1.11-4.47
							l4.86-16.82c0.46-1.58,1.73-2.8,3.32-3.2l17-4.2c1.59-0.39,3.29,0.1,4.43,1.28l12.14,12.62c1.14,1.18,1.56,2.9,1.11,4.47
							l-4.86,16.82C-34.35,81.12-35.62,82.34-37.21,82.74z M-63.46,49.53c-1.25,0.31-2.24,1.27-2.6,2.5l-4.86,16.82
							c-0.36,1.23-0.02,2.57,0.86,3.5l12.14,12.62c0.89,0.92,2.22,1.31,3.46,1l17-4.2c1.24-0.31,2.24-1.26,2.6-2.5L-30,62.44
							c0.36-1.23,0.03-2.57-0.86-3.5L-43,46.33c-0.89-0.92-2.22-1.31-3.46-1L-63.46,49.53z"/>
						<path class="st10" d="M-84.89,74.16l-17,4.2c-1.59,0.39-3.29-0.1-4.43-1.28l-12.14-12.62c-1.14-1.18-1.56-2.9-1.11-4.47
							l4.86-16.82c0.46-1.58,1.73-2.8,3.32-3.19l17-4.2c1.59-0.39,3.29,0.1,4.43,1.28l12.14,12.62c1.14,1.18,1.56,2.9,1.11,4.47
							l-4.86,16.82C-82.03,72.54-83.3,73.77-84.89,74.16z M-111.14,40.95c-1.24,0.31-2.24,1.26-2.6,2.5l-4.86,16.82
							c-0.36,1.23-0.02,2.57,0.86,3.5l12.14,12.62c0.89,0.93,2.22,1.31,3.46,1l17-4.2c1.25-0.31,2.24-1.26,2.6-2.5l4.86-16.82
							c0.36-1.23,0.02-2.57-0.86-3.5l-12.14-12.62c-0.89-0.92-2.22-1.31-3.46-1L-111.14,40.95z"/>
						<path class="st10" d="M-46.7,44.35l-17,4.2c-1.59,0.39-3.29-0.1-4.43-1.28l-12.14-12.62c-1.14-1.18-1.56-2.9-1.11-4.47
							l4.86-16.82c0.46-1.58,1.73-2.8,3.32-3.2l17-4.2c1.59-0.39,3.29,0.1,4.43,1.28l12.14,12.62c1.14,1.18,1.56,2.9,1.11,4.47
							l-4.86,16.82C-43.84,42.73-45.11,43.96-46.7,44.35z M-72.95,11.14c-1.25,0.31-2.24,1.26-2.6,2.5l-4.86,16.82
							c-0.36,1.23-0.02,2.57,0.86,3.5l12.14,12.62c0.89,0.92,2.22,1.31,3.46,1l17-4.2c1.24-0.31,2.24-1.26,2.6-2.5l4.86-16.82
							c0.36-1.23,0.03-2.57-0.86-3.5L-52.49,7.94c-0.89-0.93-2.22-1.31-3.46-1L-72.95,11.14z"/>
					</g>
				</g>
				<g class="st0">
					<g>
						<defs>
							
								<rect id="SVGID_23_" x="-75.7" y="102.88" transform="matrix(0.9708 -0.24 0.24 0.9708 -35.101 -3.3914)" width="88.46" height="79.08"/>
						</defs>
						<clipPath id="SVGID_24_">
							<use xlink:href="#SVGID_23_"  style="overflow:visible;"/>
						</clipPath>
						<path class="st11" d="M29.45,168.09l-17,4.2c-1.59,0.39-3.29-0.1-4.43-1.28l-12.14-12.62c-1.14-1.18-1.56-2.9-1.11-4.47
							l4.86-16.82c0.46-1.58,1.73-2.8,3.32-3.2l17-4.2c1.59-0.39,3.29,0.1,4.43,1.28l12.14,12.62c1.14,1.18,1.56,2.9,1.11,4.47
							l-4.86,16.82C32.32,166.47,31.04,167.69,29.45,168.09z M3.21,134.88c-1.25,0.31-2.24,1.26-2.6,2.5l-4.86,16.82
							c-0.35,1.23-0.02,2.57,0.86,3.5l12.14,12.62c0.89,0.92,2.22,1.31,3.46,1l17-4.2c1.25-0.31,2.24-1.26,2.6-2.5l4.86-16.82
							c0.35-1.23,0.02-2.57-0.86-3.5l-12.14-12.62c-0.89-0.93-2.22-1.31-3.46-1L3.21,134.88z"/>
						<path class="st11" d="M-8.74,197.9l-17,4.2c-1.59,0.39-3.29-0.1-4.43-1.28L-42.3,188.2c-1.14-1.18-1.56-2.9-1.11-4.47
							l4.86-16.82c0.46-1.58,1.73-2.8,3.32-3.19l17-4.2c1.59-0.39,3.29,0.1,4.43,1.28l12.14,12.62c1.14,1.18,1.56,2.9,1.11,4.47
							l-4.86,16.82C-5.87,196.28-7.15,197.5-8.74,197.9z M-34.99,164.69c-1.25,0.31-2.24,1.26-2.6,2.5l-4.86,16.82
							c-0.36,1.23-0.02,2.57,0.86,3.5l12.14,12.62c0.89,0.93,2.22,1.31,3.46,1l17-4.2c1.24-0.31,2.24-1.26,2.6-2.5l4.86-16.82
							c0.36-1.23,0.02-2.57-0.86-3.5l-12.14-12.62c-0.89-0.92-2.22-1.31-3.46-1L-34.99,164.69z"/>
						<path class="st11" d="M-56.42,189.32l-17,4.2c-1.59,0.39-3.29-0.1-4.43-1.28l-12.14-12.62c-1.14-1.18-1.56-2.9-1.11-4.47
							l4.86-16.82c0.46-1.58,1.73-2.8,3.32-3.2l17-4.2c1.59-0.39,3.29,0.1,4.43,1.28l12.14,12.62c1.14,1.18,1.56,2.9,1.11,4.47
							l-4.86,16.82C-53.56,187.7-54.83,188.92-56.42,189.32z M-82.67,156.11c-1.24,0.31-2.24,1.26-2.6,2.5l-4.86,16.82
							c-0.36,1.23-0.02,2.57,0.86,3.5l12.14,12.62c0.89,0.92,2.22,1.31,3.46,1l17-4.2c1.25-0.31,2.24-1.26,2.6-2.5l4.86-16.82
							c0.36-1.23,0.02-2.57-0.86-3.5l-12.14-12.62c-0.89-0.93-2.22-1.31-3.46-1L-82.67,156.11z"/>
						<path class="st11" d="M19.96,129.7l-17,4.2c-1.59,0.39-3.29-0.1-4.43-1.28l-12.14-12.62c-1.14-1.18-1.56-2.9-1.11-4.47
							l4.86-16.82c0.46-1.58,1.73-2.8,3.32-3.2l17-4.2c1.59-0.39,3.29,0.1,4.43,1.28l12.14,12.62c1.14,1.18,1.56,2.9,1.11,4.47
							l-4.86,16.82C22.83,128.08,21.55,129.31,19.96,129.7z M-6.28,96.49c-1.25,0.31-2.24,1.26-2.6,2.5l-4.86,16.82
							c-0.35,1.23-0.02,2.57,0.86,3.5l12.14,12.62c0.89,0.92,2.22,1.31,3.46,1l17-4.2c1.25-0.31,2.24-1.26,2.6-2.5l4.86-16.82
							c0.35-1.23,0.02-2.57-0.86-3.5L14.17,93.29c-0.89-0.93-2.22-1.31-3.46-1L-6.28,96.49z"/>
						<path class="st11" d="M-18.23,159.51l-17,4.2c-1.59,0.39-3.29-0.1-4.43-1.28l-12.14-12.62c-1.14-1.18-1.56-2.9-1.11-4.47
							l4.86-16.82c0.46-1.58,1.73-2.8,3.32-3.19l17-4.2c1.59-0.39,3.29,0.1,4.43,1.28l12.14,12.62c1.14,1.18,1.56,2.9,1.11,4.47
							l-4.86,16.82C-15.36,157.89-16.64,159.12-18.23,159.51z M-44.48,126.3c-1.25,0.31-2.24,1.26-2.6,2.5l-4.86,16.82
							c-0.36,1.23-0.03,2.57,0.86,3.5l12.14,12.62c0.89,0.92,2.22,1.31,3.46,1l17-4.2c1.24-0.31,2.24-1.27,2.6-2.5l4.86-16.82
							c0.36-1.23,0.02-2.57-0.86-3.5l-12.14-12.62c-0.89-0.92-2.22-1.31-3.46-1L-44.48,126.3z"/>
						<path class="st11" d="M-65.91,150.93l-17,4.2c-1.59,0.39-3.29-0.1-4.43-1.28l-12.14-12.62c-1.14-1.18-1.56-2.9-1.11-4.47
							l4.86-16.82c0.46-1.58,1.73-2.8,3.32-3.2l17-4.2c1.59-0.39,3.29,0.1,4.43,1.28l12.14,12.62c1.14,1.18,1.56,2.9,1.11,4.47
							l-4.86,16.82C-63.05,149.31-64.32,150.54-65.91,150.93z M-92.16,117.72c-1.24,0.31-2.24,1.26-2.6,2.5l-4.86,16.82
							c-0.36,1.23-0.02,2.57,0.86,3.5l12.14,12.62c0.89,0.92,2.22,1.31,3.46,1l17-4.2c1.25-0.31,2.24-1.26,2.6-2.5l4.86-16.82
							c0.36-1.23,0.02-2.57-0.86-3.5l-12.14-12.62c-0.89-0.93-2.22-1.31-3.46-1L-92.16,117.72z"/>
						<path class="st11" d="M-27.72,121.12l-17,4.2c-1.59,0.39-3.29-0.1-4.43-1.28l-12.14-12.62c-1.14-1.18-1.56-2.9-1.11-4.47
							l4.86-16.82c0.46-1.58,1.73-2.8,3.32-3.2l17-4.2c1.59-0.39,3.29,0.1,4.43,1.28l12.14,12.62c1.14,1.18,1.56,2.9,1.11,4.47
							l-4.86,16.82C-24.85,119.51-26.13,120.73-27.72,121.12z M-53.97,87.91c-1.25,0.31-2.24,1.27-2.6,2.5l-4.86,16.82
							c-0.36,1.23-0.03,2.57,0.86,3.5l12.14,12.62c0.89,0.92,2.22,1.31,3.46,1l17-4.2c1.24-0.31,2.24-1.27,2.6-2.5l4.86-16.82
							c0.36-1.23,0.02-2.57-0.86-3.5l-12.14-12.62c-0.89-0.92-2.22-1.31-3.46-1L-53.97,87.91z"/>
					</g>
				</g>
				<g class="st0">
					<g>
						<defs>
							
								<rect id="SVGID_25_" x="-56.72" y="179.65" transform="matrix(0.9708 -0.24 0.24 0.9708 -52.9723 3.4081)" width="88.46" height="79.09"/>
						</defs>
						<clipPath id="SVGID_26_">
							<use xlink:href="#SVGID_25_"  style="overflow:visible;"/>
						</clipPath>
						<path class="st12" d="M48.43,244.86l-17,4.2c-1.59,0.39-3.29-0.1-4.43-1.28l-12.14-12.62c-1.14-1.18-1.56-2.9-1.11-4.47
							l4.86-16.82c0.46-1.58,1.73-2.8,3.32-3.2l17-4.2c1.59-0.39,3.29,0.1,4.43,1.28l12.14,12.62c1.14,1.18,1.56,2.9,1.11,4.47
							l-4.86,16.82C51.3,243.24,50.03,244.47,48.43,244.86z M22.19,211.65c-1.25,0.31-2.24,1.27-2.6,2.5l-4.86,16.82
							c-0.35,1.23-0.02,2.57,0.86,3.5l12.14,12.62c0.89,0.92,2.22,1.31,3.46,1l17-4.2c1.25-0.31,2.24-1.27,2.6-2.5l4.86-16.82
							c0.35-1.23,0.02-2.57-0.86-3.5l-12.14-12.62c-0.89-0.92-2.22-1.31-3.46-1L22.19,211.65z"/>
						<path class="st12" d="M10.24,274.67l-17,4.2c-1.59,0.39-3.29-0.1-4.43-1.28l-12.14-12.62c-1.14-1.18-1.56-2.9-1.11-4.47
							l4.86-16.82c0.46-1.58,1.73-2.8,3.32-3.2l17-4.2c1.59-0.39,3.29,0.1,4.43,1.28l12.14,12.62c1.14,1.18,1.56,2.9,1.11,4.47
							l-4.86,16.82C13.11,273.05,11.83,274.28,10.24,274.67z M-16,241.46c-1.25,0.31-2.24,1.26-2.6,2.5l-4.86,16.82
							c-0.36,1.23-0.02,2.57,0.86,3.5l12.14,12.62c0.89,0.92,2.22,1.31,3.46,1l17-4.2c1.24-0.31,2.24-1.26,2.6-2.5l4.86-16.82
							c0.36-1.23,0.02-2.57-0.86-3.5L4.45,238.26c-0.89-0.93-2.22-1.31-3.46-1L-16,241.46z"/>
						<path class="st12" d="M-37.44,266.09l-17,4.2c-1.59,0.39-3.29-0.1-4.43-1.28L-71,256.4c-1.14-1.18-1.56-2.9-1.11-4.47
							l4.86-16.82c0.46-1.58,1.73-2.8,3.32-3.2l17-4.2c1.59-0.39,3.29,0.1,4.43,1.28l12.14,12.62c1.14,1.18,1.56,2.9,1.11,4.47
							l-4.86,16.82C-34.58,264.48-35.85,265.7-37.44,266.09z M-63.69,232.88c-1.24,0.31-2.24,1.27-2.6,2.5l-4.86,16.82
							c-0.36,1.23-0.02,2.57,0.86,3.5l12.14,12.62c0.89,0.92,2.22,1.31,3.46,1l17-4.2c1.25-0.31,2.24-1.27,2.6-2.5l4.86-16.82
							c0.36-1.23,0.02-2.57-0.86-3.5l-12.14-12.62c-0.89-0.92-2.22-1.31-3.46-1L-63.69,232.88z"/>
						<path class="st12" d="M38.94,206.47l-17,4.2c-1.59,0.39-3.29-0.1-4.43-1.28L5.38,196.78c-1.14-1.18-1.56-2.9-1.11-4.47
							l4.86-16.82c0.46-1.58,1.73-2.8,3.32-3.2l17-4.2c1.59-0.39,3.29,0.1,4.43,1.28l12.14,12.62c1.14,1.18,1.56,2.9,1.11,4.47
							l-4.86,16.82C41.81,204.86,40.53,206.08,38.94,206.47z M12.7,173.27c-1.25,0.31-2.24,1.27-2.6,2.5l-4.86,16.82
							c-0.35,1.23-0.02,2.57,0.86,3.5l12.14,12.62c0.89,0.92,2.22,1.31,3.46,1l17-4.2c1.25-0.31,2.24-1.26,2.6-2.5l4.86-16.82
							c0.35-1.23,0.02-2.57-0.86-3.5l-12.14-12.62c-0.89-0.92-2.22-1.31-3.46-1L12.7,173.27z"/>
						<path class="st12" d="M0.75,236.28l-17,4.2c-1.59,0.39-3.29-0.1-4.43-1.28l-12.14-12.62c-1.14-1.18-1.56-2.9-1.11-4.47
							l4.86-16.82c0.46-1.58,1.73-2.8,3.32-3.19l17-4.2c1.59-0.39,3.29,0.1,4.43,1.28L7.82,211.8c1.14,1.18,1.56,2.9,1.11,4.47
							l-4.86,16.82C3.62,234.67,2.34,235.89,0.75,236.28z M-25.5,203.08c-1.25,0.31-2.24,1.26-2.6,2.5l-4.86,16.82
							c-0.36,1.23-0.02,2.57,0.86,3.5l12.14,12.62c0.89,0.93,2.22,1.31,3.46,1l17-4.2c1.24-0.31,2.24-1.26,2.6-2.5l4.86-16.82
							c0.36-1.23,0.02-2.57-0.86-3.5l-12.14-12.62c-0.89-0.92-2.22-1.31-3.46-1L-25.5,203.08z"/>
						<path class="st12" d="M-46.93,227.7l-17,4.2c-1.59,0.39-3.29-0.1-4.43-1.28l-12.14-12.62c-1.14-1.18-1.56-2.9-1.11-4.47
							l4.86-16.82c0.46-1.58,1.73-2.8,3.32-3.2l17-4.2c1.59-0.39,3.29,0.1,4.43,1.28l12.14,12.62c1.14,1.18,1.56,2.9,1.11,4.47
							l-4.86,16.82C-44.07,226.09-45.34,227.31-46.93,227.7z M-73.18,194.5c-1.24,0.31-2.24,1.27-2.6,2.5l-4.86,16.82
							c-0.36,1.23-0.02,2.57,0.86,3.5l12.14,12.62c0.89,0.92,2.22,1.31,3.46,1l17-4.2c1.25-0.31,2.24-1.26,2.6-2.5l4.86-16.82
							c0.36-1.23,0.03-2.57-0.86-3.5l-12.14-12.62c-0.89-0.92-2.22-1.31-3.46-1L-73.18,194.5z"/>
						<path class="st12" d="M-8.74,197.9l-17,4.2c-1.59,0.39-3.29-0.1-4.43-1.28L-42.3,188.2c-1.14-1.18-1.56-2.9-1.11-4.47
							l4.86-16.82c0.46-1.58,1.73-2.8,3.32-3.19l17-4.2c1.59-0.39,3.29,0.1,4.43,1.28l12.14,12.62c1.14,1.18,1.56,2.9,1.11,4.47
							l-4.86,16.82C-5.87,196.28-7.15,197.5-8.74,197.9z M-34.99,164.69c-1.25,0.31-2.24,1.26-2.6,2.5l-4.86,16.82
							c-0.36,1.23-0.02,2.57,0.86,3.5l12.14,12.62c0.89,0.93,2.22,1.31,3.46,1l17-4.2c1.24-0.31,2.24-1.26,2.6-2.5l4.86-16.82
							c0.36-1.23,0.02-2.57-0.86-3.5l-12.14-12.62c-0.89-0.92-2.22-1.31-3.46-1L-34.99,164.69z"/>
					</g>
				</g>
			</g>
			<path class="st13" d="M96.31,183.6c-8.06,1.99-17.32,2.96-26.07,2.72c-5.42-0.04-10.81-0.83-15.83-1.68l-7.15-1.67
				c-1.58-0.37-3.03-0.88-4.44-1.36c-0.63-0.22-1.25-0.43-1.85-0.63c-3.45-1.08-6.28-2.38-8.34-3.33l-4.19-1.94
				c-1.57-0.85-2.7-2.22-3.14-3.8c-0.37-1.34-0.2-2.71,0.47-3.83l3.35-5.74c1.03-1.81,0.47-4.1-1.28-5.2l-4.96-3.61
				c-1.16-0.76-2.31-1.81-3.54-2.91c-0.42-0.37-0.84-0.76-1.28-1.14l-2.62-2.36c-0.6-0.58-1.15-1.19-1.7-1.8
				c-0.28-0.3-0.55-0.6-0.83-0.9c-3.11-3.16-5.68-6.74-7.74-9.62l-0.67-0.93l-3.18-5.28c-0.74-1.15-0.87-2.63-0.35-4.04
				c0.47-1.3,1.44-2.37,2.72-2.99l6.72-3.28c1.22-0.59,2.61-0.77,3.84-0.51c1.2,0.27,2.17,0.94,2.83,1.93l1.03,1.71
				c0.15,0.25,0.32,0.54,0.51,0.86c0.6,1.02,1.35,2.3,2.47,3.68l2.37,3.2l3.09,3.38c0.92,1.12,2.05,2.12,3.26,3.18l2.65,2.37
				c0.44,0.39,0.93,0.74,1.43,1.09c0.31,0.22,0.62,0.44,0.93,0.67c5.05,3.81,13.48,8.87,24.97,11.31c0.24,0.05,0.47,0.11,0.7,0.17
				c0.37,0.09,0.74,0.19,1.13,0.24l5.81,0.78l5.9,0.23c0.4,0.02,0.8-0.01,1.2-0.04c0.25-0.02,0.5-0.04,0.75-0.05l4.03-0.23
				c0.81-0.06,1.62-0.2,2.44-0.34c0.51-0.09,1.02-0.17,1.53-0.24c1.45-0.15,2.86-0.47,3.92-0.74c0.55-0.14,1.11-0.28,1.67-0.43
				c0.56-0.15,1.12-0.29,1.69-0.43l0.64-0.15c9.83-2.89,19.42-8.56,26.96-15.96c8.2-8.12,12.6-17.03,14.86-23.08
				c0.22-0.71,0.48-1.45,0.74-2.17c0.41-1.15,0.79-2.24,1.05-3.32l1.22-5.16c0.11-0.97,0.26-1.99,0.39-2.95
				c0.3-2.06,0.55-3.84,0.52-5.42l0.06-1.52c0.07-1.68,0.13-3.01,0.01-3.95l-0.12-2.01c-0.07-1.16,0.44-2.31,1.42-3.24
				c0.01-0.01,0.35-0.33,0.82-0.83l1.8-1.95c1.32-1.47,2.61-3.04,2.61-3.04c0.62-0.76,0.86-1.64,0.65-2.34l-0.88-3.46
				c-0.34-1.71-1.09-3.77-1.89-5.95l-0.5-1.38c-0.09-0.23-0.17-0.47-0.25-0.71c-0.14-0.41-0.29-0.82-0.46-1.21l-2.42-5.12
				c-0.38-0.89-0.81-1.58-1.12-2.08l-0.57-0.94c-0.44-0.73-1.19-1.23-2.07-1.38l-1.26-0.2c-0.71-0.11-1.69-0.26-2.73-0.32
				c-2.08-0.16-4.06-0.22-4.07-0.22c-1.34-0.04-2.45-0.58-3.14-1.52l-0.16-0.22c-0.18-0.25-0.27-0.38-0.41-0.52l-2.03-2.21
				c-1.42-1.72-3.77-3.92-7.62-7.17c-7.79-6.27-18.48-11.06-28.6-12.8c-0.62-0.08-1.27-0.17-1.92-0.25c-2.17-0.3-4.42-0.61-6.6-0.59
				c-2.24-0.18-4.41-0.05-6.51,0.08c-0.63,0.04-1.26,0.08-1.88,0.11c-0.83,0.02-1.66,0.17-2.46,0.3c-0.49,0.09-0.98,0.17-1.47,0.23
				c-0.44,0.08-0.93,0.15-1.42,0.22c-0.66,0.09-1.31,0.18-1.93,0.33l-5.92,1.55l-5.69,2.07l-5.13,2.43c-2.13,1.23-3.36,2-3.37,2
				c-1.02,0.61-2.27,0.68-3.54,0.24l0,0c0,0-0.45-0.14-1.12-0.33l-2.61-0.7c-1.91-0.48-3.93-0.9-3.93-0.9
				c-0.59-0.12-1.2-0.08-1.73,0.11c-0.03,0.01-0.18,0.07-0.42,0.18l-5.3,2.48c-1.13,0.49-2.13,1.1-3.02,1.65l-2.58,1.56
				c-1.87,1.15-4.53,0.94-6.33-0.5l-9.9-8c-1-0.79-1.62-1.97-1.74-3.31c-0.14-1.63,0.47-3.33,1.68-4.68l1.54-1.71
				c0.8-0.89,1.89-2.1,3.35-3.38l5.29-4.81c1.69-1.37,3.53-2.73,5.31-4.04l3.71-2.63l5.57-3.36c0.79-0.47,1.56-0.93,2.32-1.34
				l7.68-3.65c0.59-0.28,1.06-0.48,1.39-0.59l0.45-0.17c3.27-1.22,6.63,0.16,7.54,2.94l0.4,1.18C43.99,1.24,44.7,2,45.66,2.43
				c1,0.42,2.14,0.51,3.2,0.25l2.37-0.61l0.3-0.07l2.02-0.51C54.59,1.23,56,0.91,57.64,0.7c0.61-0.09,1.26-0.19,1.93-0.3
				c2.16-0.35,4.6-0.74,7.21-0.81l5.12-0.28c1.42,0.02,2.81,0.07,4.2,0.12l1.19,0.05c2.73,0.01,5.44,0.39,8.05,0.76
				c0.82,0.12,1.63,0.23,2.43,0.33c1.19,0.12,2.32,0.4,3.42,0.66c0.46,0.11,0.92,0.22,1.37,0.31l4.23,1c1.82,0.5,3.4,1.05,4.66,1.49
				c0.57,0.2,1.09,0.38,1.55,0.53l2.34,0.81c2.15,0.86,4.54,0.03,5.4-1.81l2.23-4.92c1.14-2.59,4.97-3.62,8.02-2.1l8.72,5.11l4,2.83
				c2.93,1.98,5.7,3.85,7.19,5.73l0.52,0.45c2.57,2.28,5.24,4.64,7.76,7.56l1.07,1.18c1.05,1.15,2.12,2.32,3.15,3.56l4.61,6.16
				c0.47,0.64,0.95,1.29,1.39,1.96l2.75,4.52c0.88,1.47,1.8,2.98,2.62,4.54l0.72,1.49c1.82,3.75,3.7,7.64,5.03,11.72
				c1.58,4.01,2.62,8.24,3.63,12.34l0.35,1.41c0.37,1.76,0.63,3.51,0.89,5.2l0.77,5.16l0.24,3.43c0.14,2.25,0.26,4.45,0.35,6.61
				l-0.34,9.42c-0.04,0.69-0.12,1.36-0.21,2.03c-0.04,0.32-0.08,0.63-0.12,0.95l-0.75,5.57c-1.12,6.41-2.66,12.43-4.33,16.96
				l-0.41,1.17c-0.5,1.44-0.9,2.6-1.23,3.43l-0.71,1.6c-0.87,1.96-2.48,3.4-4.3,3.85c-1.11,0.27-2.2,0.16-3.17-0.32l-10.45-5.08
				c-1.79-0.85-4.1-0.07-5.21,1.72l-2.77,4.73c-0.67,1-1.42,2.03-2.23,3.14l-2.98,4.06l-5.49,6.14c-0.27,0.28-0.53,0.52-0.8,0.76
				l-4.57,4.17c-0.6,0.57-1.21,1.08-1.81,1.5l-2.59,1.93c-0.55,0.41-1.16,0.71-1.82,0.87c-2.09,0.52-4.22-0.36-5.42-2.24l-0.92-1.39
				c-1.15-1.71-3.37-2.45-4.84-1.56c-0.97,0.56-1.35,1.59-1.49,2.16c-0.24,0.92-0.11,1.93,0.35,2.84l7.52,14.8
				c0.59,1.14,0.68,2.48,0.25,3.77c-0.52,1.54-1.75,2.85-3.35,3.6l-0.88,0.41c-0.6,0.3-1.51,0.67-2.6,1.06l-4.91,1.77
				c-1.2,0.43-2.57,0.92-4.06,1.29l-0.37,0.09C98.66,182.99,97.51,183.31,96.31,183.6z M12.01,119.3c-0.33,0.08-0.65,0.2-0.95,0.35
				l-6.72,3.28c-0.93,0.45-1.63,1.21-1.96,2.15c-0.36,0.97-0.28,1.96,0.21,2.73l3.79,6.13c2.04,2.83,4.57,6.36,7.6,9.45
				c0.3,0.32,0.58,0.63,0.86,0.94c0.53,0.58,1.05,1.16,1.61,1.7l2.6,2.34c0.44,0.38,0.87,0.77,1.29,1.15
				c1.19,1.07,2.3,2.07,3.39,2.8l4.95,3.59c2.4,1.51,3.18,4.69,1.74,7.21l-3.36,5.75c-0.46,0.78-0.57,1.72-0.31,2.66
				c0.32,1.18,1.18,2.22,2.36,2.85l4.14,1.91c2.03,0.93,4.8,2.21,8.16,3.26c0.62,0.2,1.25,0.42,1.89,0.64
				c1.37,0.47,2.78,0.97,4.29,1.32l7.11,1.66c4.92,0.83,10.24,1.61,15.56,1.65c8.63,0.23,17.75-0.72,25.68-2.68
				c1.18-0.29,2.3-0.6,3.37-0.92l0.4-0.1c1.42-0.35,2.68-0.8,3.91-1.24l4.91-1.77c1.31-0.46,2.06-0.79,2.45-0.99l0.9-0.42
				c1.24-0.57,2.17-1.57,2.56-2.71c0.3-0.89,0.25-1.82-0.16-2.59l-7.53-14.81c-0.63-1.24-0.79-2.62-0.46-3.9
				c0.35-1.37,1.11-2.45,2.12-3.04c0.41-0.25,0.8-0.41,1.2-0.51c2.05-0.51,4.4,0.52,5.73,2.49l0.92,1.4
				c1.13,1.75,3.45,2.21,5.08,0.99l2.61-1.95c0.56-0.39,1.11-0.85,1.66-1.38l4.58-4.18c0.24-0.22,0.48-0.44,0.71-0.67l5.42-6.06
				l2.93-4c0.8-1.09,1.54-2.11,2.17-3.05l2.75-4.71c1.53-2.45,4.68-3.47,7.16-2.3l10.46,5.08c1.84,0.92,4.36-0.41,5.42-2.78
				l0.7-1.57c0.31-0.79,0.7-1.93,1.19-3.34l0.41-1.19c1.65-4.46,3.16-10.38,4.26-16.68l0.74-5.52c0.03-0.31,0.08-0.63,0.12-0.96
				c0.08-0.63,0.17-1.26,0.2-1.9l0.35-9.34c-0.09-2.09-0.21-4.28-0.35-6.52l-0.23-3.37l-0.76-5.09c-0.26-1.67-0.52-3.4-0.87-5.09
				l-0.34-1.38c-0.99-4.05-2.02-8.23-3.58-12.19c-1.31-4.03-3.17-7.86-4.97-11.57l-0.71-1.47c-0.79-1.5-1.69-3-2.57-4.45l-2.73-4.49
				c-0.42-0.62-0.88-1.25-1.34-1.87l-4.58-6.12c-0.99-1.19-2.04-2.35-3.07-3.48l-1.09-1.2c-2.47-2.86-5.1-5.19-7.63-7.43l-0.61-0.54
				c-1.43-1.79-4.11-3.6-6.94-5.51l-5.21-3.55l-1.7-1.02l-5.69-3.29c-2.23-1.11-5.11-0.46-5.93,1.39l-2.24,4.93
				c-1.18,2.53-4.53,3.7-7.29,2.59l-2.29-0.79c-0.45-0.15-0.98-0.33-1.56-0.53C99.69,5.02,98.15,4.48,96.4,4l-4.18-0.99
				c-0.45-0.09-0.92-0.21-1.39-0.32c-1.04-0.25-2.13-0.51-3.23-0.62c-0.82-0.1-1.64-0.22-2.46-0.34c-2.57-0.36-5.22-0.74-7.87-0.74
				l-1.22-0.05c-1.38-0.05-2.75-0.1-4.11-0.12L66.83,1.1c-2.53,0.07-4.92,0.45-7.03,0.79C59.13,2,58.47,2.11,57.84,2.2
				c-1.57,0.2-2.93,0.51-3.93,0.76l-2.02,0.51l-0.3,0.07l-2.36,0.6c-1.38,0.34-2.86,0.22-4.17-0.33C43.7,3.2,42.7,2.13,42.24,0.8
				L41.84-0.4c-0.65-1.97-3.16-2.91-5.58-2l-0.47,0.18c-0.32,0.11-0.73,0.28-1.24,0.53L26.9,1.94c-0.71,0.38-1.46,0.83-2.24,1.29
				l-6.21,3.75l-2.95,2.16c-1.77,1.3-3.6,2.65-5.22,3.97L5.02,17.9c-1.4,1.23-2.45,2.41-3.23,3.27l-1.54,1.71
				c-0.93,1.04-1.4,2.33-1.3,3.54c0.08,0.92,0.5,1.73,1.18,2.27l9.9,8c1.31,1.05,3.25,1.22,4.6,0.39l2.57-1.56
				c0.93-0.57,1.99-1.22,3.19-1.74l5.28-2.47c0.35-0.17,0.57-0.24,0.57-0.24c0.74-0.27,1.67-0.33,2.53-0.16c0,0,2.06,0.42,4.01,0.91
				l2.63,0.7c0.73,0.2,1.2,0.36,1.2,0.36c0.87,0.3,1.67,0.26,2.28-0.1l0,0c0,0,1.24-0.78,3.45-2.05l5.45-2.59l5.97-2.15l5.67-1.45
				c0.68-0.17,1.38-0.27,2.09-0.36c0.46-0.06,0.92-0.13,1.39-0.21c0.51-0.06,0.97-0.15,1.45-0.23c0.85-0.15,1.74-0.3,2.66-0.32
				c0.6-0.03,1.22-0.07,1.84-0.11c2.16-0.13,4.39-0.27,6.66-0.08c2.22-0.02,4.52,0.3,6.75,0.6c0.65,0.09,1.29,0.18,1.94,0.26
				c10.39,1.79,21.35,6.69,29.34,13.13c3.94,3.32,6.35,5.58,7.8,7.34l1.98,2.15c0.18,0.18,0.33,0.38,0.44,0.54l0.26,0.35
				c0.41,0.56,1.11,0.89,1.98,0.92l0,0c0,0,2.02,0.06,4.13,0.22c1.09,0.06,2.11,0.22,2.85,0.33l1.27,0.2
				c1.32,0.21,2.45,0.98,3.12,2.09l0.5,0.83c0.39,0.64,0.84,1.38,1.26,2.34l2.42,5.11c0.2,0.44,0.36,0.89,0.52,1.34l0.75,2.07
				c0.81,2.24,1.58,4.35,1.94,6.13l0.87,3.39c0.35,1.17,0.02,2.53-0.93,3.69c0,0-1.32,1.61-2.65,3.09l-1.83,1.98
				c-0.51,0.55-0.88,0.9-0.88,0.9c-0.66,0.62-0.99,1.35-0.96,2.06l0.12,1.96c0.13,1.02,0.07,2.4,0,4.15l-0.06,1.47
				c0.04,1.65-0.24,3.58-0.53,5.62c-0.14,0.96-0.28,1.96-0.4,3l-1.23,5.24c-0.28,1.16-0.67,2.29-1.1,3.48
				c-0.25,0.7-0.5,1.42-0.73,2.15c-2.32,6.23-6.83,15.35-15.23,23.67c-7.72,7.58-17.53,13.38-27.63,16.35l-0.66,0.16
				c-0.56,0.14-1.11,0.28-1.67,0.43c-0.56,0.15-1.12,0.29-1.68,0.43c-1.11,0.28-2.58,0.61-4.11,0.77c-0.47,0.07-0.97,0.15-1.46,0.23
				c-0.86,0.14-1.72,0.29-2.59,0.36l-4.06,0.23c-0.25,0.01-0.48,0.03-0.71,0.05c-0.46,0.03-0.92,0.07-1.38,0.04l-5.97-0.23
				l-5.89-0.79c-0.44-0.06-0.87-0.17-1.29-0.28c-0.22-0.05-0.43-0.11-0.65-0.16c-11.75-2.5-20.39-7.68-25.56-11.58
				c-0.3-0.22-0.59-0.43-0.89-0.64c-0.54-0.38-1.08-0.76-1.57-1.19l-2.64-2.37c-1.25-1.1-2.43-2.14-3.4-3.32l-3.11-3.41l-2.4-3.23
				c-1.17-1.44-1.99-2.83-2.58-3.84c-0.18-0.31-0.35-0.58-0.5-0.83l-1.02-1.69c-0.42-0.64-1.08-1.08-1.88-1.26
				C13.32,119.12,12.65,119.14,12.01,119.3z"/>
		</g>
	</g>
</g>
</svg>
