<?xml version="1.0" encoding="utf-8"?>
<!-- Generator: Adobe Illustrator 23.0.2, SVG Export Plug-In . SVG Version: 6.00 Build 0)  -->
<svg version="1.1" id="Calque_1" xmlns="http://www.w3.org/2000/svg" xmlns:xlink="http://www.w3.org/1999/xlink" x="0px" y="0px"
	 viewBox="0 0 954 294" style="enable-background:new 0 0 954 294;" xml:space="preserve">
<style type="text/css">
	.st0{fill:#FFFFFF;}
	.st1{opacity:0.2;}
	.st2{fill:#00ABE9;}
	.st3{fill:none;stroke:#FFFFFF;stroke-miterlimit:10;}
</style>
<g>
	<path class="st0" d="M109.24,289.83l-15.65,0.54c-3.34,0.11-6.45-1.74-7.95-4.73l-3.88-7.77c-1.19-2.38-3.67-3.85-6.33-3.76
		c-3.05,0.1-5.8-1.3-7.47-3.75l-38.41-54.46c-0.28-0.4-0.18-0.94,0.21-1.22c0.4-0.28,0.94-0.18,1.21,0.21l38.42,54.47
		c1.33,1.96,3.53,3.08,5.88,3c3.43-0.12,6.55,1.74,8.04,4.72l3.88,7.77c1.19,2.38,3.67,3.85,6.33,3.76l15.65-0.54
		c0.48-0.02,0.88,0.36,0.9,0.84C110.1,289.42,109.73,289.82,109.24,289.83z"/>
</g>
<g>
	<path class="st0" d="M53,267.54c-0.28,0.01-0.57-0.12-0.75-0.37L13.2,211.55c-1.59-2.27-1.96-5.17-0.99-7.77l0.07-0.18
		c0.76-2.03,0.48-4.32-0.75-6.1l-5.91-8.6c-0.27-0.4-0.17-0.94,0.22-1.21c0.4-0.27,0.94-0.17,1.21,0.22l5.91,8.6
		c1.55,2.26,1.9,5.13,0.94,7.7l-0.07,0.18c-0.77,2.06-0.48,4.36,0.78,6.16l39.06,55.62c0.28,0.39,0.18,0.94-0.21,1.21
		C53.33,267.48,53.17,267.54,53,267.54z"/>
</g>
<g>
	<path class="st0" d="M11.1,186.95c0.1,2.94-2.2,5.4-5.14,5.5c-2.94,0.1-5.4-2.2-5.5-5.14c-0.1-2.94,2.2-5.4,5.14-5.5
		C8.53,181.72,10.99,184.01,11.1,186.95z"/>
</g>
<g>
	<path class="st0" d="M115.82,288.74c0.1,2.94-2.2,5.4-5.14,5.5c-2.94,0.1-5.4-2.2-5.5-5.14c-0.1-2.94,2.2-5.4,5.14-5.5
		C113.26,283.5,115.72,285.8,115.82,288.74z"/>
</g>
<g>
	<path class="st0" d="M847.1,4.19l15.66-0.22c3.34-0.05,6.42,1.87,7.85,4.89l3.72,7.85c1.14,2.4,3.59,3.93,6.25,3.89
		c3.05-0.04,5.78,1.42,7.39,3.9l37.29,55.23c0.27,0.4,0.16,0.94-0.24,1.21c-0.4,0.27-0.94,0.16-1.21-0.23l-37.3-55.24
		c-1.29-1.99-3.46-3.15-5.82-3.12c-3.43,0.05-6.51-1.87-7.94-4.88l-3.73-7.85c-1.14-2.4-3.59-3.93-6.25-3.89l-15.66,0.22
		c-0.48,0.01-0.88-0.38-0.88-0.86C846.24,4.59,846.62,4.19,847.1,4.19z"/>
</g>
<g>
	<path class="st0" d="M902.87,27.62c0.28,0,0.57,0.13,0.74,0.38l37.91,56.41c1.55,2.3,1.86,5.21,0.83,7.79l-0.07,0.18
		c-0.8,2.02-0.57,4.31,0.62,6.12l5.74,8.72c0.26,0.4,0.15,0.94-0.25,1.21c-0.4,0.27-0.94,0.15-1.21-0.25l-5.74-8.72
		c-1.51-2.29-1.8-5.17-0.79-7.72l0.07-0.18c0.81-2.04,0.57-4.35-0.66-6.17l-37.91-56.41c-0.27-0.4-0.16-0.94,0.24-1.21
		C902.55,27.67,902.71,27.63,902.87,27.62z"/>
</g>
<g>
	<path class="st0" d="M943.13,109.05c-0.04-2.94,2.31-5.35,5.25-5.39c2.94-0.04,5.35,2.31,5.39,5.25c0.04,2.94-2.31,5.35-5.25,5.39
		C945.59,114.34,943.17,111.99,943.13,109.05z"/>
</g>
<g>
	<path class="st0" d="M840.51,5.15c-0.04-2.94,2.31-5.35,5.25-5.39c2.94-0.04,5.35,2.31,5.39,5.25c0.04,2.94-2.31,5.35-5.25,5.4
		C842.96,10.44,840.55,8.09,840.51,5.15z"/>
</g>
<g>
	<path class="st0" d="M294.72,262.6H145.23c-0.71,0-1.28-0.58-1.28-1.28c0-0.71,0.58-1.28,1.28-1.28h149.48
		c0.71,0,1.28,0.58,1.28,1.28C296,262.02,295.42,262.6,294.72,262.6z"/>
</g>
<g>
	<path class="st0" d="M828.72,5.6H679.23c-0.71,0-1.28-0.58-1.28-1.28s0.58-1.28,1.28-1.28h149.48c0.71,0,1.28,0.58,1.28,1.28
		S829.42,5.6,828.72,5.6z"/>
</g>
<g>
	<path class="st0" d="M230.72,25.6H81.23c-0.71,0-1.28-0.58-1.28-1.28s0.58-1.28,1.28-1.28h149.48c0.71,0,1.28,0.58,1.28,1.28
		S231.42,25.6,230.72,25.6z"/>
</g>
<g>
	<path class="st0" d="M813.72,263.6H664.23c-0.71,0-1.28-0.58-1.28-1.28c0-0.71,0.58-1.28,1.28-1.28h149.48
		c0.71,0,1.28,0.58,1.28,1.28C815,263.02,814.42,263.6,813.72,263.6z"/>
</g>
<g class="st1">
	<path class="st2" d="M82.29,31.43h791.2c3.84,0,7.55,2.41,10.44,6.77l59.25,89.54c7.63,11.54,7.43,32.9-0.42,43.97l-58.96,83.13
		c-2.82,3.97-6.38,6.16-10.03,6.16h-38.58c-2.34,0-4.58-1.02-6.47-2.94l-6.92-7.02c-3.96-4.01-8.58-6.13-13.36-6.13h-661.1
		c-4.78,0-9.4,2.12-13.36,6.13l-6.93,7.02c-1.89,1.92-4.13,2.94-6.47,2.94H82c-3.65,0-7.21-2.19-10.03-6.16l-58.96-83.13
		c-7.85-11.06-8.05-32.43-0.42-43.97L71.84,38.2C74.73,33.83,78.44,31.43,82.29,31.43z"/>
</g>
<g>
	<path class="st3" d="M82.29,31.43h791.2c3.84,0,7.55,2.41,10.44,6.77l59.25,89.54c7.63,11.54,7.43,32.9-0.42,43.97l-58.96,83.13
		c-2.82,3.97-6.38,6.16-10.03,6.16h-38.58c-2.34,0-4.58-1.02-6.47-2.94l-6.92-7.02c-3.96-4.01-8.58-6.13-13.36-6.13h-661.1
		c-4.78,0-9.4,2.12-13.36,6.13l-6.93,7.02c-1.89,1.92-4.13,2.94-6.47,2.94H82c-3.65,0-7.21-2.19-10.03-6.16l-58.96-83.13
		c-7.85-11.06-8.05-32.43-0.42-43.97L71.84,38.2C74.73,33.83,78.44,31.43,82.29,31.43z"/>
</g>
</svg>
